<svg width="691" height="206" viewBox="0 0 691 206" fill="none" xmlns="http://www.w3.org/2000/svg">
<line x1="166" y1="112.5" x2="-2.18557e-08" y2="112.5" stroke="white"/>
<line x1="22.5" y1="133" x2="22.5" stroke="white"/>
<mask id="path-3-outside-1_332_625" maskUnits="userSpaceOnUse" x="42" y="23" width="274" height="56" fill="black">
<rect fill="white" x="42" y="23" width="274" height="56"/>
<path d="M43.8 75.28C48.768 74.776 52.44 74.2 53.88 70.384L69.072 24.16H69.432L85.848 70.528C87.432 74.344 90.672 74.776 96.072 75.28V76H74.76V75.28C79.728 74.776 82.536 74.2 81.024 70.456L78.432 63.544H57.768L55.464 70.384C54.024 74.2 56.472 74.776 61.8 75.28V76H43.8V75.28ZM58.272 62.248H78L67.776 33.808L58.272 62.248ZM96.6761 75.28C101.788 74.776 104.596 74.128 104.596 70.096V31.504C104.596 27.4 101.86 26.824 96.6761 26.32V25.6H108.628V70.096C108.628 74.2 111.508 74.776 116.548 75.28V76H96.6761V75.28ZM139.202 77.08C131.354 77.08 124.37 73.408 124.37 64.336V45.904C124.37 41.8 121.706 41.152 116.594 40.72V40H128.402V63.904C128.402 72.256 134.09 75.784 139.994 75.784C147.05 75.784 153.098 69.736 153.098 61.528V45.904C153.098 41.8 150.434 41.224 145.322 40.72V40H157.13V70.096C157.13 74.2 159.722 74.776 164.834 75.28V76H153.098V70.024C150.29 74.2 145.106 77.08 139.202 77.08ZM165.428 75.28C170.54 74.776 173.132 74.128 173.132 70.096V45.904C173.132 41.8 170.54 41.224 165.428 40.72V40H177.164V45.832C180.404 41.224 186.02 38.92 191.708 38.92C197.9 38.92 203.588 41.656 205.748 47.128C208.556 41.656 214.82 38.92 221.012 38.92C228.932 38.92 235.988 43.24 235.988 51.664V70.096C235.916 74.2 238.58 74.848 243.692 75.28V76H224.18V75.28C229.292 74.704 231.956 74.128 231.956 70.096V51.88C231.956 43.96 226.268 40.216 220.508 40.216C213.236 40.216 206.612 45.256 206.54 54.832V70.096C206.54 74.2 209.204 74.848 214.316 75.28V76H194.804V75.28C199.916 74.704 202.58 74.128 202.58 70.096V51.88C202.58 43.96 196.892 40.216 190.916 40.216C183.86 40.216 177.236 45.472 177.164 54.544V70.096C177.164 74.2 179.828 74.776 184.94 75.28V76H165.428V75.28ZM286.674 70.096C286.602 74.2 289.266 74.848 294.45 75.28V76H274.938V75.28C279.978 74.704 282.642 74.128 282.642 70.096V53.248C282.642 43.024 277.098 40.216 270.186 40.216C263.346 40.216 256.146 45.544 256.074 54.544V70.096C256.074 74.2 258.738 74.776 263.778 75.28V76H244.266V75.28C249.378 74.776 252.042 74.128 252.042 70.096V45.904C252.042 41.8 249.45 41.224 244.266 40.72V40H256.074V45.976C259.458 41.224 265.218 38.92 270.69 38.92C279.546 38.92 286.674 42.304 286.674 52.816V70.096ZM294.981 75.28C300.093 74.776 302.973 74.128 302.973 70.096V45.904C302.973 41.8 300.165 41.224 294.981 40.72V40H306.933V70.096C306.933 74.2 309.813 74.776 314.853 75.28V76H294.981V75.28ZM307.005 28.408C306.861 29.992 305.349 31 303.909 30.856C302.469 30.64 301.317 29.416 301.461 27.832C301.677 26.248 303.189 25.312 304.629 25.456C306.069 25.6 307.221 26.752 307.005 28.408Z"/>
</mask>
<path d="M43.8 75.28C48.768 74.776 52.44 74.2 53.88 70.384L69.072 24.16H69.432L85.848 70.528C87.432 74.344 90.672 74.776 96.072 75.28V76H74.76V75.28C79.728 74.776 82.536 74.2 81.024 70.456L78.432 63.544H57.768L55.464 70.384C54.024 74.2 56.472 74.776 61.8 75.28V76H43.8V75.28ZM58.272 62.248H78L67.776 33.808L58.272 62.248ZM96.6761 75.28C101.788 74.776 104.596 74.128 104.596 70.096V31.504C104.596 27.4 101.86 26.824 96.6761 26.32V25.6H108.628V70.096C108.628 74.2 111.508 74.776 116.548 75.28V76H96.6761V75.28ZM139.202 77.08C131.354 77.08 124.37 73.408 124.37 64.336V45.904C124.37 41.8 121.706 41.152 116.594 40.72V40H128.402V63.904C128.402 72.256 134.09 75.784 139.994 75.784C147.05 75.784 153.098 69.736 153.098 61.528V45.904C153.098 41.8 150.434 41.224 145.322 40.72V40H157.13V70.096C157.13 74.2 159.722 74.776 164.834 75.28V76H153.098V70.024C150.29 74.2 145.106 77.08 139.202 77.08ZM165.428 75.28C170.54 74.776 173.132 74.128 173.132 70.096V45.904C173.132 41.8 170.54 41.224 165.428 40.72V40H177.164V45.832C180.404 41.224 186.02 38.92 191.708 38.92C197.9 38.92 203.588 41.656 205.748 47.128C208.556 41.656 214.82 38.92 221.012 38.92C228.932 38.92 235.988 43.24 235.988 51.664V70.096C235.916 74.2 238.58 74.848 243.692 75.28V76H224.18V75.28C229.292 74.704 231.956 74.128 231.956 70.096V51.88C231.956 43.96 226.268 40.216 220.508 40.216C213.236 40.216 206.612 45.256 206.54 54.832V70.096C206.54 74.2 209.204 74.848 214.316 75.28V76H194.804V75.28C199.916 74.704 202.58 74.128 202.58 70.096V51.88C202.58 43.96 196.892 40.216 190.916 40.216C183.86 40.216 177.236 45.472 177.164 54.544V70.096C177.164 74.2 179.828 74.776 184.94 75.28V76H165.428V75.28ZM286.674 70.096C286.602 74.2 289.266 74.848 294.45 75.28V76H274.938V75.28C279.978 74.704 282.642 74.128 282.642 70.096V53.248C282.642 43.024 277.098 40.216 270.186 40.216C263.346 40.216 256.146 45.544 256.074 54.544V70.096C256.074 74.2 258.738 74.776 263.778 75.28V76H244.266V75.28C249.378 74.776 252.042 74.128 252.042 70.096V45.904C252.042 41.8 249.45 41.224 244.266 40.72V40H256.074V45.976C259.458 41.224 265.218 38.92 270.69 38.92C279.546 38.92 286.674 42.304 286.674 52.816V70.096ZM294.981 75.28C300.093 74.776 302.973 74.128 302.973 70.096V45.904C302.973 41.8 300.165 41.224 294.981 40.72V40H306.933V70.096C306.933 74.2 309.813 74.776 314.853 75.28V76H294.981V75.28ZM307.005 28.408C306.861 29.992 305.349 31 303.909 30.856C302.469 30.64 301.317 29.416 301.461 27.832C301.677 26.248 303.189 25.312 304.629 25.456C306.069 25.6 307.221 26.752 307.005 28.408Z" fill="#FFF7F7"/>
<path d="M43.8 75.28L43.6991 74.2851L42.8 74.3763V75.28H43.8ZM53.88 70.384L54.8156 70.7371L54.8232 70.7168L54.83 70.6962L53.88 70.384ZM69.072 24.16V23.16H68.348L68.122 23.8478L69.072 24.16ZM69.432 24.16L70.3747 23.8263L70.1388 23.16H69.432V24.16ZM85.848 70.528L84.9053 70.8617L84.9142 70.8868L84.9244 70.9114L85.848 70.528ZM96.072 75.28H97.072V74.369L96.1649 74.2843L96.072 75.28ZM96.072 76V77H97.072V76H96.072ZM74.76 76H73.76V77H74.76V76ZM74.76 75.28L74.6591 74.2851L73.76 74.3763V75.28H74.76ZM81.024 70.456L80.0877 70.8071L80.0921 70.8188L80.0968 70.8305L81.024 70.456ZM78.432 63.544L79.3683 63.1929L79.125 62.544H78.432V63.544ZM57.768 63.544V62.544H57.0496L56.8203 63.2248L57.768 63.544ZM55.464 70.384L56.3996 70.7371L56.4059 70.7202L56.4117 70.7032L55.464 70.384ZM61.8 75.28H62.8V74.3701L61.8942 74.2844L61.8 75.28ZM61.8 76V77H62.8V76H61.8ZM43.8 76H42.8V77H43.8V76ZM58.272 62.248L57.3236 61.931L56.8835 63.248H58.272V62.248ZM78 62.248V63.248H79.4221L78.941 61.9097L78 62.248ZM67.776 33.808L68.717 33.4697L67.7415 30.7561L66.8276 33.4911L67.776 33.808ZM43.9009 76.2749C46.3631 76.0251 48.663 75.7471 50.5327 75.0031C52.4708 74.232 53.9814 72.9477 54.8156 70.7371L52.9444 70.0309C52.3386 71.6363 51.2932 72.548 49.7933 73.1449C48.225 73.7689 46.2049 74.0309 43.6991 74.2851L43.9009 76.2749ZM54.83 70.6962L70.022 24.4722L68.122 23.8478L52.93 70.0718L54.83 70.6962ZM69.072 25.16H69.432V23.16H69.072V25.16ZM68.4893 24.4937L84.9053 70.8617L86.7907 70.1943L70.3747 23.8263L68.4893 24.4937ZM84.9244 70.9114C85.8261 73.0837 87.2431 74.3374 89.1697 75.0792C91.0064 75.7864 93.3143 76.027 95.9791 76.2757L96.1649 74.2843C93.4297 74.029 91.4176 73.8016 89.8883 73.2128C88.4489 72.6586 87.4539 71.7883 86.7716 70.1446L84.9244 70.9114ZM95.072 75.28V76H97.072V75.28H95.072ZM96.072 75H74.76V77H96.072V75ZM75.76 76V75.28H73.76V76H75.76ZM74.8609 76.2749C76.1049 76.1487 77.2518 76.0145 78.2391 75.8216C79.2149 75.6308 80.1184 75.368 80.8335 74.9423C81.5805 74.4977 82.1586 73.8499 82.3588 72.9314C82.5482 72.0627 82.3642 71.1041 81.9512 70.0815L80.0968 70.8305C80.4398 71.6799 80.4719 72.1973 80.4047 72.5054C80.3484 72.7636 80.1975 72.9933 79.8105 73.2237C79.3916 73.473 78.7561 73.6827 77.8554 73.8587C76.9662 74.0325 75.8991 74.1593 74.6591 74.2851L74.8609 76.2749ZM81.9603 70.1049L79.3683 63.1929L77.4957 63.8951L80.0877 70.8071L81.9603 70.1049ZM78.432 62.544H57.768V64.544H78.432V62.544ZM56.8203 63.2248L54.5163 70.0648L56.4117 70.7032L58.7157 63.8632L56.8203 63.2248ZM54.5284 70.0309C54.1412 71.0571 53.9557 72.0107 54.1138 72.8692C54.2831 73.788 54.8181 74.4574 55.5653 74.9228C56.271 75.3625 57.1755 75.629 58.1703 75.8209C59.1778 76.0153 60.3714 76.1493 61.7058 76.2756L61.8942 74.2844C60.5646 74.1587 59.4542 74.0317 58.5492 73.8571C57.6315 73.68 57.015 73.4695 56.6227 73.2252C56.2719 73.0066 56.1319 72.785 56.0807 72.5068C56.0183 72.1683 56.0668 71.6189 56.3996 70.7371L54.5284 70.0309ZM60.8 75.28V76H62.8V75.28H60.8ZM61.8 75H43.8V77H61.8V75ZM44.8 76V75.28H42.8V76H44.8ZM58.272 63.248H78V61.248H58.272V63.248ZM78.941 61.9097L68.717 33.4697L66.835 34.1463L77.059 62.5863L78.941 61.9097ZM66.8276 33.4911L57.3236 61.931L59.2204 62.5649L68.7244 34.1249L66.8276 33.4911ZM96.6761 75.28L96.578 74.2848L95.6761 74.3737V75.28H96.6761ZM96.6761 26.32H95.6761V27.2275L96.5794 27.3153L96.6761 26.32ZM96.6761 25.6V24.6H95.6761V25.6H96.6761ZM108.628 25.6H109.628V24.6H108.628V25.6ZM116.548 75.28H117.548V74.375L116.648 74.285L116.548 75.28ZM116.548 76V77H117.548V76H116.548ZM96.6761 76H95.6761V77H96.6761V76ZM96.7742 76.2752C99.2897 76.0272 101.481 75.732 103.031 74.8896C103.843 74.4482 104.508 73.8444 104.957 73.0112C105.401 72.1889 105.596 71.2164 105.596 70.096H103.596C103.596 70.9916 103.44 71.6121 103.198 72.0611C102.961 72.4991 102.605 72.8448 102.076 73.1324C100.943 73.748 99.1745 74.0288 96.578 74.2848L96.7742 76.2752ZM105.596 70.096V31.504H103.596V70.096H105.596ZM105.596 31.504C105.596 30.3721 105.408 29.3925 104.972 28.5665C104.528 27.7265 103.868 27.1214 103.056 26.6823C101.513 25.8482 99.3152 25.5719 96.7729 25.3247L96.5794 27.3153C99.2211 27.5721 100.984 27.8358 102.105 28.4417C102.624 28.7226 102.972 29.0625 103.203 29.5005C103.442 29.9525 103.596 30.5839 103.596 31.504H105.596ZM97.6761 26.32V25.6H95.6761V26.32H97.6761ZM96.6761 26.6H108.628V24.6H96.6761V26.6ZM107.628 25.6V70.096H109.628V25.6H107.628ZM107.628 70.096C107.628 71.2352 107.828 72.2185 108.279 73.0456C108.737 73.8838 109.411 74.4848 110.228 74.9203C111.784 75.7507 113.976 76.0278 116.449 76.275L116.648 74.285C114.08 74.0282 112.312 73.7653 111.169 73.1556C110.635 72.8712 110.275 72.5272 110.035 72.0874C109.789 71.6365 109.628 71.0088 109.628 70.096H107.628ZM115.548 75.28V76H117.548V75.28H115.548ZM116.548 75H96.6761V77H116.548V75ZM97.6761 76V75.28H95.6761V76H97.6761ZM116.594 40.72H115.594V41.6391L116.51 41.7164L116.594 40.72ZM116.594 40V39H115.594V40H116.594ZM128.402 40H129.402V39H128.402V40ZM145.322 40.72H144.322V41.6263L145.224 41.7152L145.322 40.72ZM145.322 40V39H144.322V40H145.322ZM157.13 40H158.13V39H157.13V40ZM164.834 75.28H165.834V74.3737L164.932 74.2848L164.834 75.28ZM164.834 76V77H165.834V76H164.834ZM153.098 76H152.098V77H153.098V76ZM153.098 70.024H154.098V66.7447L152.268 69.466L153.098 70.024ZM139.202 76.08C135.415 76.08 131.944 75.1914 129.445 73.311C126.987 71.4615 125.37 68.5812 125.37 64.336H123.37C123.37 69.1628 125.246 72.6545 128.242 74.909C131.197 77.1326 135.142 78.08 139.202 78.08V76.08ZM125.37 64.336V45.904H123.37V64.336H125.37ZM125.37 45.904C125.37 44.7753 125.188 43.796 124.764 42.9681C124.334 42.1254 123.689 41.51 122.887 41.062C121.362 40.21 119.194 39.9361 116.678 39.7236L116.51 41.7164C119.107 41.9359 120.827 42.202 121.912 42.808C122.415 43.089 122.755 43.4321 122.984 43.8787C123.22 44.34 123.37 44.9807 123.37 45.904H125.37ZM117.594 40.72V40H115.594V40.72H117.594ZM116.594 41H128.402V39H116.594V41ZM127.402 40V63.904H129.402V40H127.402ZM127.402 63.904C127.402 68.3237 128.917 71.5808 131.319 73.7224C133.7 75.8459 136.854 76.784 139.994 76.784V74.784C137.231 74.784 134.588 73.9581 132.65 72.2296C130.732 70.5192 129.402 67.8363 129.402 63.904H127.402ZM139.994 76.784C147.657 76.784 154.098 70.2325 154.098 61.528H152.098C152.098 69.2395 146.444 74.784 139.994 74.784V76.784ZM154.098 61.528V45.904H152.098V61.528H154.098ZM154.098 45.904C154.098 44.7756 153.916 43.7991 153.491 42.9751C153.058 42.1359 152.411 41.5283 151.61 41.0864C150.091 40.2484 147.926 39.9719 145.42 39.7248L145.224 41.7152C147.83 41.9721 149.553 42.2356 150.644 42.8376C151.148 43.1157 151.487 43.4531 151.713 43.8919C151.948 44.3459 152.098 44.9804 152.098 45.904H154.098ZM146.322 40.72V40H144.322V40.72H146.322ZM145.322 41H157.13V39H145.322V41ZM156.13 40V70.096H158.13V40H156.13ZM156.13 70.096C156.13 71.2209 156.307 72.1949 156.723 73.0175C157.147 73.8565 157.783 74.4665 158.577 74.9107C160.08 75.7518 162.231 76.0282 164.736 76.2752L164.932 74.2848C162.325 74.0278 160.624 73.7642 159.553 73.1653C159.061 72.8895 158.729 72.5545 158.508 72.1155C158.278 71.6601 158.13 71.0231 158.13 70.096H156.13ZM163.834 75.28V76H165.834V75.28H163.834ZM164.834 75H153.098V77H164.834V75ZM154.098 76V70.024H152.098V76H154.098ZM152.268 69.466C149.654 73.3541 144.787 76.08 139.202 76.08V78.08C145.425 78.08 150.927 75.0458 153.928 70.582L152.268 69.466ZM165.428 75.28L165.33 74.2848L164.428 74.3737V75.28H165.428ZM165.428 40.72H164.428V41.6263L165.33 41.7152L165.428 40.72ZM165.428 40V39H164.428V40H165.428ZM177.164 40H178.164V39H177.164V40ZM177.164 45.832H176.164V48.9928L177.982 46.4072L177.164 45.832ZM205.748 47.128L204.818 47.4952L205.629 49.5502L206.637 47.5846L205.748 47.128ZM235.988 70.096L236.988 70.1135L236.988 70.1048V70.096H235.988ZM243.692 75.28H244.692V74.3609L243.776 74.2836L243.692 75.28ZM243.692 76V77H244.692V76H243.692ZM224.18 76H223.18V77H224.18V76ZM224.18 75.28L224.068 74.2863L223.18 74.3863V75.28H224.18ZM206.54 54.832L205.54 54.8245V54.832H206.54ZM214.316 75.28H215.316V74.3609L214.4 74.2836L214.316 75.28ZM214.316 76V77H215.316V76H214.316ZM194.804 76H193.804V77H194.804V76ZM194.804 75.28L194.692 74.2863L193.804 74.3863V75.28H194.804ZM177.164 54.544L176.164 54.5361V54.544H177.164ZM184.94 75.28H185.94V74.3737L185.038 74.2848L184.94 75.28ZM184.94 76V77H185.94V76H184.94ZM165.428 76H164.428V77H165.428V76ZM165.526 76.2752C168.039 76.0274 170.186 75.7325 171.69 74.8811C172.481 74.4329 173.115 73.8223 173.538 72.989C173.954 72.1706 174.132 71.2056 174.132 70.096H172.132C172.132 71.0024 171.985 71.6304 171.755 72.0832C171.533 72.5212 171.2 72.8601 170.704 73.1409C169.633 73.7475 167.929 74.0286 165.33 74.2848L165.526 76.2752ZM174.132 70.096V45.904H172.132V70.096H174.132ZM174.132 45.904C174.132 44.7791 173.955 43.8051 173.539 42.9825C173.115 42.1435 172.479 41.5335 171.685 41.0893C170.182 40.2482 168.031 39.9718 165.526 39.7248L165.33 41.7152C167.937 41.9722 169.638 42.2358 170.708 42.8347C171.201 43.1105 171.532 43.4455 171.754 43.8845C171.984 44.3399 172.132 44.9769 172.132 45.904H174.132ZM166.428 40.72V40H164.428V40.72H166.428ZM165.428 41H177.164V39H165.428V41ZM176.164 40V45.832H178.164V40H176.164ZM177.982 46.4072C180.993 42.1242 186.266 39.92 191.708 39.92V37.92C185.773 37.92 179.814 40.3238 176.346 45.2568L177.982 46.4072ZM191.708 39.92C197.645 39.92 202.858 42.5322 204.818 47.4952L206.678 46.7608C204.317 40.7798 198.154 37.92 191.708 37.92V39.92ZM206.637 47.5846C209.222 42.5476 215.065 39.92 221.012 39.92V37.92C214.574 37.92 207.889 40.7644 204.858 46.6714L206.637 47.5846ZM221.012 39.92C224.803 39.92 228.317 40.9557 230.857 42.9236C233.37 44.8699 234.988 47.7656 234.988 51.664H236.988C236.988 47.1384 235.077 43.6621 232.082 41.3424C229.115 39.0443 225.14 37.92 221.012 37.92V39.92ZM234.988 51.664V70.096H236.988V51.664H234.988ZM234.988 70.0785C234.968 71.207 235.134 72.1889 235.546 73.0207C235.966 73.8683 236.606 74.4869 237.405 74.9366C238.923 75.7902 241.093 76.064 243.607 76.2765L243.776 74.2836C241.178 74.064 239.46 73.7978 238.386 73.1934C237.889 72.9141 237.557 72.5742 237.338 72.1325C237.111 71.6751 236.971 71.0369 236.988 70.1135L234.988 70.0785ZM242.692 75.28V76H244.692V75.28H242.692ZM243.692 75H224.18V77H243.692V75ZM225.18 76V75.28H223.18V76H225.18ZM224.292 76.2737C226.796 75.9916 228.955 75.694 230.468 74.8596C231.265 74.4199 231.911 73.8194 232.346 72.9896C232.773 72.1737 232.956 71.209 232.956 70.096H230.956C230.956 70.999 230.806 71.6183 230.574 72.0624C230.348 72.4926 230.01 72.8281 229.502 73.1084C228.404 73.714 226.676 73.9924 224.068 74.2863L224.292 76.2737ZM232.956 70.096V51.88H230.956V70.096H232.956ZM232.956 51.88C232.956 47.6615 231.431 44.4663 229.06 42.3344C226.708 40.2189 223.596 39.216 220.508 39.216V41.216C223.18 41.216 225.792 42.085 227.723 43.8216C229.636 45.5417 230.956 48.1785 230.956 51.88H232.956ZM220.508 39.216C216.643 39.216 212.913 40.5562 210.133 43.2096C207.343 45.8726 205.578 49.7947 205.54 54.8245L207.54 54.8395C207.574 50.2933 209.156 46.9074 211.514 44.6564C213.882 42.3958 217.1 41.216 220.508 41.216V39.216ZM205.54 54.832V70.096H207.54V54.832H205.54ZM205.54 70.096C205.54 71.2247 205.722 72.204 206.145 73.0319C206.576 73.8746 207.221 74.49 208.023 74.938C209.548 75.79 211.716 76.0639 214.231 76.2765L214.4 74.2836C211.803 74.0641 210.083 73.798 208.998 73.192C208.495 72.911 208.154 72.5679 207.926 72.1214C207.69 71.66 207.54 71.0193 207.54 70.096H205.54ZM213.316 75.28V76H215.316V75.28H213.316ZM214.316 75H194.804V77H214.316V75ZM195.804 76V75.28H193.804V76H195.804ZM194.916 76.2737C197.42 75.9916 199.579 75.694 201.092 74.8596C201.889 74.4199 202.535 73.8194 202.97 72.9896C203.396 72.1737 203.58 71.209 203.58 70.096H201.58C201.58 70.999 201.43 71.6183 201.198 72.0624C200.972 72.4926 200.634 72.8281 200.126 73.1084C199.028 73.714 197.3 73.9924 194.692 74.2863L194.916 76.2737ZM203.58 70.096V51.88H201.58V70.096H203.58ZM203.58 51.88C203.58 47.6612 202.055 44.4632 199.653 42.3302C197.27 40.2142 194.103 39.216 190.916 39.216V41.216C193.704 41.216 196.37 42.0898 198.325 43.8258C200.261 45.5448 201.58 48.1788 201.58 51.88H203.58ZM190.916 39.216C183.34 39.216 176.24 44.8854 176.164 54.5361L178.164 54.5519C178.231 46.0586 184.379 41.216 190.916 41.216V39.216ZM176.164 54.544V70.096H178.164V54.544H176.164ZM176.164 70.096C176.164 71.2244 176.346 72.2009 176.771 73.0249C177.204 73.8641 177.851 74.4717 178.652 74.9136C180.171 75.7516 182.336 76.0281 184.842 76.2752L185.038 74.2848C182.431 74.0279 180.709 73.7644 179.618 73.1624C179.114 72.8843 178.775 72.5469 178.549 72.1081C178.314 71.6541 178.164 71.0196 178.164 70.096H176.164ZM183.94 75.28V76H185.94V75.28H183.94ZM184.94 75H165.428V77H184.94V75ZM166.428 76V75.28H164.428V76H166.428ZM286.674 70.096L287.674 70.1135L287.674 70.1048V70.096H286.674ZM294.45 75.28H295.45V74.3599L294.533 74.2835L294.45 75.28ZM294.45 76V77H295.45V76H294.45ZM274.938 76H273.938V77H274.938V76ZM274.938 75.28L274.824 74.2865L273.938 74.3878V75.28H274.938ZM256.074 54.544L255.074 54.536V54.544H256.074ZM263.778 75.28H264.778V74.375L263.878 74.285L263.778 75.28ZM263.778 76V77H264.778V76H263.778ZM244.266 76H243.266V77H244.266V76ZM244.266 75.28L244.168 74.2848L243.266 74.3737V75.28H244.266ZM244.266 40.72H243.266V41.6275L244.169 41.7153L244.266 40.72ZM244.266 40V39H243.266V40H244.266ZM256.074 40H257.074V39H256.074V40ZM256.074 45.976H255.074V49.1042L256.889 46.5561L256.074 45.976ZM285.674 70.0785C285.654 71.2069 285.82 72.1895 286.234 73.022C286.656 73.8704 287.299 74.4889 288.103 74.938C289.63 75.7906 291.817 76.0641 294.367 76.2765L294.533 74.2835C291.899 74.0639 290.162 73.7974 289.079 73.192C288.578 72.9121 288.244 72.5721 288.025 72.1313C287.798 71.6745 287.658 71.0371 287.674 70.1135L285.674 70.0785ZM293.45 75.28V76H295.45V75.28H293.45ZM294.45 75H274.938V77H294.45V75ZM275.938 76V75.28H273.938V76H275.938ZM275.052 76.2735C277.52 75.9915 279.662 75.6935 281.166 74.8582C281.958 74.418 282.601 73.8173 283.034 72.9883C283.459 72.1731 283.642 71.2091 283.642 70.096H281.642C281.642 70.9989 281.492 71.6189 281.26 72.0637C281.036 72.4947 280.698 72.83 280.194 73.1098C279.106 73.7145 277.396 73.9925 274.824 74.2865L275.052 76.2735ZM283.642 70.096V53.248H281.642V70.096H283.642ZM283.642 53.248C283.642 47.9606 282.204 44.3803 279.667 42.1473C277.154 39.9361 273.751 39.216 270.186 39.216V41.216C273.533 41.216 276.358 41.8999 278.345 43.6487C280.308 45.3757 281.642 48.3114 281.642 53.248H283.642ZM270.186 39.216C262.866 39.216 255.151 44.9198 255.074 54.536L257.074 54.552C257.141 46.1682 263.826 41.216 270.186 41.216V39.216ZM255.074 54.544V70.096H257.074V54.544H255.074ZM255.074 70.096C255.074 71.2245 255.256 72.2004 255.68 73.0237C256.111 73.862 256.754 74.4698 257.55 74.9122C259.061 75.7512 261.209 76.028 263.678 76.275L263.878 74.285C261.307 74.028 259.603 73.7648 258.522 73.1638C258.022 72.8862 257.684 72.549 257.458 72.1093C257.225 71.6546 257.074 71.0195 257.074 70.096H255.074ZM262.778 75.28V76H264.778V75.28H262.778ZM263.778 75H244.266V77H263.778V75ZM245.266 76V75.28H243.266V76H245.266ZM244.364 76.2752C246.878 76.0273 249.04 75.7324 250.559 74.884C251.357 74.4382 252.001 73.8299 252.434 72.9965C252.859 72.1767 253.042 71.2092 253.042 70.096H251.042C251.042 70.9988 250.892 71.6243 250.658 72.0758C250.431 72.5136 250.09 72.8548 249.583 73.138C248.492 73.7477 246.766 74.0287 244.168 74.2848L244.364 76.2752ZM253.042 70.096V45.904H251.042V70.096H253.042ZM253.042 45.904C253.042 44.7792 252.865 43.8046 252.448 42.9813C252.022 42.1414 251.382 41.5316 250.584 41.0878C249.072 40.2478 246.903 39.9717 244.363 39.7247L244.169 41.7153C246.813 41.9723 248.532 42.2362 249.612 42.8362C250.11 43.1124 250.442 43.4476 250.664 43.8857C250.895 44.3404 251.042 44.9768 251.042 45.904H253.042ZM245.266 40.72V40H243.266V40.72H245.266ZM244.266 41H256.074V39H244.266V41ZM255.074 40V45.976H257.074V40H255.074ZM256.889 46.5561C260.047 42.1205 265.47 39.92 270.69 39.92V37.92C264.966 37.92 258.869 40.3275 255.259 45.3959L256.889 46.5561ZM270.69 39.92C275.018 39.92 278.762 40.7518 281.404 42.7269C283.992 44.662 285.674 47.8098 285.674 52.816H287.674C287.674 47.3102 285.792 43.51 282.602 41.1251C279.466 38.7802 275.218 37.92 270.69 37.92V39.92ZM285.674 52.816V70.096H287.674V52.816H285.674ZM294.981 75.28L294.883 74.2848L293.981 74.3737V75.28H294.981ZM294.981 40.72H293.981V41.6275L294.884 41.7153L294.981 40.72ZM294.981 40V39H293.981V40H294.981ZM306.933 40H307.933V39H306.933V40ZM314.853 75.28H315.853V74.375L314.953 74.285L314.853 75.28ZM314.853 76V77H315.853V76H314.853ZM294.981 76H293.981V77H294.981V76ZM307.005 28.408L306.013 28.2787L306.011 28.298L306.009 28.3175L307.005 28.408ZM303.909 30.856L303.761 31.8449L303.785 31.8486L303.809 31.851L303.909 30.856ZM301.461 27.832L300.47 27.6969L300.467 27.7191L300.465 27.7415L301.461 27.832ZM304.629 25.456L304.529 26.451V26.451L304.629 25.456ZM295.079 76.2752C297.595 76.0271 299.801 75.7319 301.367 74.8922C302.185 74.453 302.861 73.8514 303.319 73.0183C303.772 72.195 303.973 71.2201 303.973 70.096H301.973C301.973 70.9879 301.814 71.606 301.567 72.0539C301.326 72.4921 300.962 72.84 300.421 73.1298C299.269 73.7481 297.479 74.0289 294.883 74.2848L295.079 76.2752ZM303.973 70.096V45.904H301.973V70.096H303.973ZM303.973 45.904C303.973 44.7685 303.779 43.7864 303.334 42.9592C302.881 42.1194 302.211 41.5165 301.392 41.0796C299.833 40.2484 297.621 39.9719 295.078 39.7247L294.884 41.7153C297.525 41.9721 299.309 42.2356 300.45 42.8444C300.981 43.1275 301.337 43.4696 301.573 43.9078C301.816 44.3586 301.973 44.9875 301.973 45.904H303.973ZM295.981 40.72V40H293.981V40.72H295.981ZM294.981 41H306.933V39H294.981V41ZM305.933 40V70.096H307.933V40H305.933ZM305.933 70.096C305.933 71.2352 306.133 72.2185 306.584 73.0456C307.041 73.8838 307.716 74.4848 308.532 74.9203C310.089 75.7507 312.281 76.0278 314.754 76.275L314.953 74.285C312.385 74.0282 310.617 73.7653 309.474 73.1556C308.94 72.8712 308.58 72.5272 308.34 72.0874C308.093 71.6365 307.933 71.0088 307.933 70.096H305.933ZM313.853 75.28V76H315.853V75.28H313.853ZM314.853 75H294.981V77H314.853V75ZM295.981 76V75.28H293.981V76H295.981ZM306.009 28.3175C305.923 29.2619 304.986 29.9587 304.009 29.861L303.809 31.851C305.712 32.0413 307.799 30.7221 308.001 28.4985L306.009 28.3175ZM304.057 29.8671C303.072 29.7193 302.367 28.9121 302.457 27.9225L300.465 27.7415C300.267 29.9199 301.866 31.5607 303.761 31.8449L304.057 29.8671ZM302.452 27.9671C302.582 27.0092 303.527 26.3508 304.529 26.451L304.729 24.461C302.851 24.2732 300.772 25.4868 300.47 27.6969L302.452 27.9671ZM304.529 26.451C305.485 26.5465 306.147 27.2552 306.013 28.2787L307.997 28.5373C308.295 26.2488 306.653 24.6534 304.728 24.461L304.529 26.451Z" fill="black" mask="url(#path-3-outside-1_332_625)"/>
</svg>
