<svg width="685" height="225" viewBox="0 0 685 225" fill="none" xmlns="http://www.w3.org/2000/svg">
<line x1="20.5" y1="166" x2="20.5" y2="-2.18557e-08" stroke="white"/>
<line y1="22.5" x2="133" y2="22.5" stroke="white"/>
<mask id="path-3-outside-1_332_656" maskUnits="userSpaceOnUse" x="37" y="56" width="536" height="148" fill="black">
<rect fill="white" x="37" y="56" width="536" height="148"/>
<path d="M96.048 58.32C90.576 58.824 87.696 59.4 87.696 63.504V102.096C87.696 106.2 90.648 106.776 96.048 107.28V108H75.096V107.28C79.776 106.776 83.088 106.128 83.088 102.096V60.984L65.952 95.112L48.6 63.216V102.096C48.6 106.2 51.984 106.776 57.024 107.28V108H39.24V107.28C44.352 106.776 47.232 106.128 47.304 102.096V63.504C47.304 59.4 44.424 58.824 38.88 58.32V57.6H50.76L67.608 88.2L83.088 57.6H96.048V58.32ZM119.88 109.08C108.432 109.08 100.872 101.16 100.872 90.144C100.872 79.056 108.144 70.848 119.088 70.92C130.248 70.992 135.36 77.544 135.36 84.96H105.912C105.552 86.544 105.408 88.2 105.408 90C105.408 100.872 111.816 107.784 120.528 107.784C127.944 107.784 132.696 103.392 134.424 97.56L135.648 98.064C133.632 103.68 129.312 109.08 119.88 109.08ZM106.2 83.664H130.896C130.32 76.464 125.784 72.216 119.376 72.216C113.328 72.144 108.072 76.392 106.2 83.664ZM160.189 109.08C148.741 109.08 141.181 101.16 141.181 90.144C141.181 79.056 148.453 70.848 159.397 70.92C170.557 70.992 175.669 77.544 175.669 84.96H146.221C145.861 86.544 145.717 88.2 145.717 90C145.717 100.872 152.125 107.784 160.837 107.784C168.253 107.784 173.005 103.392 174.733 97.56L175.957 98.064C173.941 103.68 169.621 109.08 160.189 109.08ZM146.509 83.664H171.205C170.629 76.464 166.093 72.216 159.685 72.216C153.637 72.144 148.381 76.392 146.509 83.664ZM179.114 73.296V72C186.746 71.928 187.754 68.544 188.258 57.6H189.41V72H202.73V73.296H189.41V97.776C189.41 104.256 192.29 107.64 196.466 107.64C199.562 107.64 203.594 106.056 205.106 101.448L206.258 102.024C204.242 107.208 200.21 109.08 195.314 109.08C189.554 109.08 185.378 105.768 185.378 97.344V73.296H179.114ZM250.121 109.08C238.817 109.08 230.465 102.024 230.465 90.288C230.465 78.552 238.817 70.92 250.121 70.92C261.353 70.92 269.561 78.552 269.561 90.288C269.561 102.024 261.353 109.08 250.121 109.08ZM250.121 107.856C257.969 107.856 265.025 101.448 265.025 90.288C265.025 78.624 257.969 72.144 250.121 72.144C242.129 72.144 235.001 78.696 235.001 90.288C235.001 101.376 242.129 107.856 250.121 107.856ZM295.07 109.08C287.222 109.08 280.238 105.408 280.238 96.336V77.904C280.238 73.8 277.574 73.152 272.462 72.72V72H284.27V95.904C284.27 104.256 289.958 107.784 295.862 107.784C302.918 107.784 308.966 101.736 308.966 93.528V77.904C308.966 73.8 306.302 73.224 301.19 72.72V72H312.998V102.096C312.998 106.2 315.59 106.776 320.702 107.28V108H308.966V102.024C306.158 106.2 300.974 109.08 295.07 109.08ZM333.032 102.096C333.032 106.2 335.696 106.776 340.736 107.28V108H321.224V107.28C326.336 106.776 329 106.128 329 102.096V77.904C329 73.8 326.408 73.224 321.224 72.72V72H333.032V78.696C335.768 73.944 340.232 70.92 344.984 70.92C348.728 70.92 352.328 72.144 355.568 74.376L357.584 86.112H356.792C353.912 77.4 349.664 72.36 343.904 72.36C339.296 72.36 333.032 78.12 333.032 87.048V102.096ZM380.536 73.296V72C388.168 71.928 389.176 68.544 389.68 57.6H390.832V72H404.152V73.296H390.832V97.776C390.832 104.256 393.712 107.64 397.888 107.64C400.984 107.64 405.016 106.056 406.528 101.448L407.68 102.024C405.664 107.208 401.632 109.08 396.736 109.08C390.976 109.08 386.8 105.768 386.8 97.344V73.296H380.536ZM430.346 109.08C418.898 109.08 411.338 101.16 411.338 90.144C411.338 79.056 418.61 70.848 429.554 70.92C440.714 70.992 445.826 77.544 445.826 84.96H416.378C416.018 86.544 415.874 88.2 415.874 90C415.874 100.872 422.282 107.784 430.994 107.784C438.41 107.784 443.162 103.392 444.89 97.56L446.114 98.064C444.098 103.68 439.778 109.08 430.346 109.08ZM416.666 83.664H441.362C440.786 76.464 436.25 72.216 429.842 72.216C423.794 72.144 418.538 76.392 416.666 83.664ZM466.551 109.008C459.063 109.008 452.223 105.336 452.223 97.704C452.223 90 461.727 81.72 480.303 79.776C479.295 73.944 473.607 72.216 469.647 72.216C461.295 72.216 457.767 75.672 453.879 86.112H453.159L455.319 74.376C458.271 73.008 462.879 70.92 469.071 70.92C477.567 70.92 484.767 73.368 484.767 84.24V100.584C484.767 105.408 484.983 107.496 486.927 107.496C488.439 107.496 489.879 105.984 490.959 102.96L491.967 103.68C490.599 107.352 488.727 109.08 485.847 109.08C483.039 109.08 481.095 107.352 480.735 103.176C477.927 106.848 472.599 109.008 466.551 109.008ZM467.271 107.712C473.391 107.784 480.735 103.68 480.735 96.12V85.248C480.735 84.024 480.663 82.296 480.519 81.072C466.335 82.728 456.687 87.696 456.687 97.92C456.687 104.544 461.583 107.712 467.271 107.712ZM493.449 107.28C498.561 106.776 501.153 106.128 501.153 102.096V77.904C501.153 73.8 498.561 73.224 493.449 72.72V72H505.185V77.832C508.425 73.224 514.041 70.92 519.729 70.92C525.921 70.92 531.609 73.656 533.769 79.128C536.577 73.656 542.841 70.92 549.033 70.92C556.953 70.92 564.009 75.24 564.009 83.664V102.096C563.937 106.2 566.601 106.848 571.713 107.28V108H552.201V107.28C557.313 106.704 559.977 106.128 559.977 102.096V83.88C559.977 75.96 554.289 72.216 548.529 72.216C541.257 72.216 534.633 77.256 534.561 86.832V102.096C534.561 106.2 537.225 106.848 542.337 107.28V108H522.825V107.28C527.937 106.704 530.601 106.128 530.601 102.096V83.88C530.601 75.96 524.913 72.216 518.937 72.216C511.881 72.216 505.257 77.472 505.185 86.544V102.096C505.185 106.2 507.849 106.776 512.961 107.28V108H493.449V107.28ZM41.04 202V195.952C45.984 192.016 50.304 188.392 54 185.08C57.744 181.768 60.672 178.576 62.784 175.504C64.896 172.432 65.952 169.312 65.952 166.144C65.952 163.504 65.208 161.44 63.72 159.952C62.232 158.416 60.216 157.648 57.672 157.648C54.744 157.648 52.488 158.584 50.904 160.456C49.32 162.28 48.528 164.464 48.528 167.008H41.112C41.16 163.456 41.904 160.48 43.344 158.08C44.784 155.68 46.728 153.856 49.176 152.608C51.672 151.36 54.504 150.736 57.672 150.736C62.808 150.736 66.768 152.128 69.552 154.912C72.336 157.648 73.728 161.32 73.728 165.928C73.728 168.856 73.08 171.688 71.784 174.424C70.536 177.112 68.88 179.68 66.816 182.128C64.752 184.576 62.448 186.904 59.904 189.112C57.408 191.32 54.888 193.432 52.344 195.448H75.096V202H41.04ZM98.6119 202.864C94.7239 202.864 91.3159 201.808 88.3879 199.696C85.5079 197.584 83.2759 194.584 81.6919 190.696C80.1079 186.76 79.3159 182.128 79.3159 176.8C79.3159 171.424 80.1079 166.792 81.6919 162.904C83.2759 159.016 85.5079 156.016 88.3879 153.904C91.3159 151.792 94.7239 150.736 98.6119 150.736C102.548 150.736 105.956 151.792 108.836 153.904C111.716 156.016 113.948 159.016 115.532 162.904C117.116 166.792 117.908 171.424 117.908 176.8C117.908 182.128 117.116 186.76 115.532 190.696C113.948 194.584 111.716 197.584 108.836 199.696C105.956 201.808 102.548 202.864 98.6119 202.864ZM87.0919 176.8C87.0919 179.488 87.3319 181.936 87.8119 184.144C88.2919 186.352 88.9639 188.272 89.8279 189.904L102.428 158.728C101.228 158.152 99.9559 157.864 98.6119 157.864C95.2519 157.864 92.4919 159.568 90.3319 162.976C88.1719 166.336 87.0919 170.944 87.0919 176.8ZM98.6119 195.808C100.868 195.808 102.86 195.04 104.588 193.504C106.316 191.968 107.66 189.784 108.62 186.952C109.628 184.072 110.132 180.688 110.132 176.8C110.132 174.112 109.892 171.664 109.412 169.456C108.932 167.248 108.26 165.352 107.396 163.768L94.7959 194.944C95.9959 195.52 97.2679 195.808 98.6119 195.808ZM123.064 202V195.952C128.008 192.016 132.328 188.392 136.024 185.08C139.768 181.768 142.696 178.576 144.808 175.504C146.92 172.432 147.976 169.312 147.976 166.144C147.976 163.504 147.232 161.44 145.744 159.952C144.256 158.416 142.24 157.648 139.696 157.648C136.768 157.648 134.512 158.584 132.928 160.456C131.344 162.28 130.552 164.464 130.552 167.008H123.136C123.184 163.456 123.928 160.48 125.368 158.08C126.808 155.68 128.752 153.856 131.2 152.608C133.696 151.36 136.528 150.736 139.696 150.736C144.832 150.736 148.792 152.128 151.576 154.912C154.36 157.648 155.752 161.32 155.752 165.928C155.752 168.856 155.104 171.688 153.808 174.424C152.56 177.112 150.904 179.68 148.84 182.128C146.776 184.576 144.472 186.904 141.928 189.112C139.432 191.32 136.912 193.432 134.368 195.448H157.12V202H123.064ZM180.996 202.864C177.684 202.864 174.684 202.24 171.996 200.992C169.308 199.744 167.172 197.92 165.588 195.52C164.004 193.072 163.14 190.12 162.996 186.664H170.628C170.772 189.304 171.732 191.488 173.508 193.216C175.332 194.944 177.828 195.808 180.996 195.808C184.116 195.808 186.564 195.04 188.34 193.504C190.116 191.968 191.004 189.856 191.004 187.168C191.004 184.192 189.924 182.008 187.764 180.616C185.604 179.224 182.964 178.528 179.844 178.528H175.38V171.76H179.196C182.028 171.76 184.356 171.184 186.18 170.032C188.004 168.88 188.916 167.08 188.916 164.632C188.916 162.52 188.22 160.864 186.828 159.664C185.436 158.416 183.468 157.792 180.924 157.792C178.332 157.792 176.268 158.488 174.732 159.88C173.196 161.272 172.332 163.048 172.14 165.208H164.58C164.724 162.328 165.492 159.808 166.884 157.648C168.276 155.488 170.172 153.808 172.572 152.608C174.972 151.36 177.756 150.736 180.924 150.736C184.38 150.736 187.26 151.336 189.564 152.536C191.868 153.688 193.596 155.248 194.748 157.216C195.9 159.184 196.476 161.392 196.476 163.84C196.476 166.336 195.732 168.496 194.244 170.32C192.804 172.096 191.052 173.392 188.988 174.208V174.64C191.772 175.408 194.052 176.848 195.828 178.96C197.652 181.024 198.564 183.808 198.564 187.312C198.564 190.144 197.868 192.76 196.476 195.16C195.132 197.512 193.14 199.384 190.5 200.776C187.908 202.168 184.74 202.864 180.996 202.864Z"/>
</mask>
<path d="M96.048 58.32C90.576 58.824 87.696 59.4 87.696 63.504V102.096C87.696 106.2 90.648 106.776 96.048 107.28V108H75.096V107.28C79.776 106.776 83.088 106.128 83.088 102.096V60.984L65.952 95.112L48.6 63.216V102.096C48.6 106.2 51.984 106.776 57.024 107.28V108H39.24V107.28C44.352 106.776 47.232 106.128 47.304 102.096V63.504C47.304 59.4 44.424 58.824 38.88 58.32V57.6H50.76L67.608 88.2L83.088 57.6H96.048V58.32ZM119.88 109.08C108.432 109.08 100.872 101.16 100.872 90.144C100.872 79.056 108.144 70.848 119.088 70.92C130.248 70.992 135.36 77.544 135.36 84.96H105.912C105.552 86.544 105.408 88.2 105.408 90C105.408 100.872 111.816 107.784 120.528 107.784C127.944 107.784 132.696 103.392 134.424 97.56L135.648 98.064C133.632 103.68 129.312 109.08 119.88 109.08ZM106.2 83.664H130.896C130.32 76.464 125.784 72.216 119.376 72.216C113.328 72.144 108.072 76.392 106.2 83.664ZM160.189 109.08C148.741 109.08 141.181 101.16 141.181 90.144C141.181 79.056 148.453 70.848 159.397 70.92C170.557 70.992 175.669 77.544 175.669 84.96H146.221C145.861 86.544 145.717 88.2 145.717 90C145.717 100.872 152.125 107.784 160.837 107.784C168.253 107.784 173.005 103.392 174.733 97.56L175.957 98.064C173.941 103.68 169.621 109.08 160.189 109.08ZM146.509 83.664H171.205C170.629 76.464 166.093 72.216 159.685 72.216C153.637 72.144 148.381 76.392 146.509 83.664ZM179.114 73.296V72C186.746 71.928 187.754 68.544 188.258 57.6H189.41V72H202.73V73.296H189.41V97.776C189.41 104.256 192.29 107.64 196.466 107.64C199.562 107.64 203.594 106.056 205.106 101.448L206.258 102.024C204.242 107.208 200.21 109.08 195.314 109.08C189.554 109.08 185.378 105.768 185.378 97.344V73.296H179.114ZM250.121 109.08C238.817 109.08 230.465 102.024 230.465 90.288C230.465 78.552 238.817 70.92 250.121 70.92C261.353 70.92 269.561 78.552 269.561 90.288C269.561 102.024 261.353 109.08 250.121 109.08ZM250.121 107.856C257.969 107.856 265.025 101.448 265.025 90.288C265.025 78.624 257.969 72.144 250.121 72.144C242.129 72.144 235.001 78.696 235.001 90.288C235.001 101.376 242.129 107.856 250.121 107.856ZM295.07 109.08C287.222 109.08 280.238 105.408 280.238 96.336V77.904C280.238 73.8 277.574 73.152 272.462 72.72V72H284.27V95.904C284.27 104.256 289.958 107.784 295.862 107.784C302.918 107.784 308.966 101.736 308.966 93.528V77.904C308.966 73.8 306.302 73.224 301.19 72.72V72H312.998V102.096C312.998 106.2 315.59 106.776 320.702 107.28V108H308.966V102.024C306.158 106.2 300.974 109.08 295.07 109.08ZM333.032 102.096C333.032 106.2 335.696 106.776 340.736 107.28V108H321.224V107.28C326.336 106.776 329 106.128 329 102.096V77.904C329 73.8 326.408 73.224 321.224 72.72V72H333.032V78.696C335.768 73.944 340.232 70.92 344.984 70.92C348.728 70.92 352.328 72.144 355.568 74.376L357.584 86.112H356.792C353.912 77.4 349.664 72.36 343.904 72.36C339.296 72.36 333.032 78.12 333.032 87.048V102.096ZM380.536 73.296V72C388.168 71.928 389.176 68.544 389.68 57.6H390.832V72H404.152V73.296H390.832V97.776C390.832 104.256 393.712 107.64 397.888 107.64C400.984 107.64 405.016 106.056 406.528 101.448L407.68 102.024C405.664 107.208 401.632 109.08 396.736 109.08C390.976 109.08 386.8 105.768 386.8 97.344V73.296H380.536ZM430.346 109.08C418.898 109.08 411.338 101.16 411.338 90.144C411.338 79.056 418.61 70.848 429.554 70.92C440.714 70.992 445.826 77.544 445.826 84.96H416.378C416.018 86.544 415.874 88.2 415.874 90C415.874 100.872 422.282 107.784 430.994 107.784C438.41 107.784 443.162 103.392 444.89 97.56L446.114 98.064C444.098 103.68 439.778 109.08 430.346 109.08ZM416.666 83.664H441.362C440.786 76.464 436.25 72.216 429.842 72.216C423.794 72.144 418.538 76.392 416.666 83.664ZM466.551 109.008C459.063 109.008 452.223 105.336 452.223 97.704C452.223 90 461.727 81.72 480.303 79.776C479.295 73.944 473.607 72.216 469.647 72.216C461.295 72.216 457.767 75.672 453.879 86.112H453.159L455.319 74.376C458.271 73.008 462.879 70.92 469.071 70.92C477.567 70.92 484.767 73.368 484.767 84.24V100.584C484.767 105.408 484.983 107.496 486.927 107.496C488.439 107.496 489.879 105.984 490.959 102.96L491.967 103.68C490.599 107.352 488.727 109.08 485.847 109.08C483.039 109.08 481.095 107.352 480.735 103.176C477.927 106.848 472.599 109.008 466.551 109.008ZM467.271 107.712C473.391 107.784 480.735 103.68 480.735 96.12V85.248C480.735 84.024 480.663 82.296 480.519 81.072C466.335 82.728 456.687 87.696 456.687 97.92C456.687 104.544 461.583 107.712 467.271 107.712ZM493.449 107.28C498.561 106.776 501.153 106.128 501.153 102.096V77.904C501.153 73.8 498.561 73.224 493.449 72.72V72H505.185V77.832C508.425 73.224 514.041 70.92 519.729 70.92C525.921 70.92 531.609 73.656 533.769 79.128C536.577 73.656 542.841 70.92 549.033 70.92C556.953 70.92 564.009 75.24 564.009 83.664V102.096C563.937 106.2 566.601 106.848 571.713 107.28V108H552.201V107.28C557.313 106.704 559.977 106.128 559.977 102.096V83.88C559.977 75.96 554.289 72.216 548.529 72.216C541.257 72.216 534.633 77.256 534.561 86.832V102.096C534.561 106.2 537.225 106.848 542.337 107.28V108H522.825V107.28C527.937 106.704 530.601 106.128 530.601 102.096V83.88C530.601 75.96 524.913 72.216 518.937 72.216C511.881 72.216 505.257 77.472 505.185 86.544V102.096C505.185 106.2 507.849 106.776 512.961 107.28V108H493.449V107.28ZM41.04 202V195.952C45.984 192.016 50.304 188.392 54 185.08C57.744 181.768 60.672 178.576 62.784 175.504C64.896 172.432 65.952 169.312 65.952 166.144C65.952 163.504 65.208 161.44 63.72 159.952C62.232 158.416 60.216 157.648 57.672 157.648C54.744 157.648 52.488 158.584 50.904 160.456C49.32 162.28 48.528 164.464 48.528 167.008H41.112C41.16 163.456 41.904 160.48 43.344 158.08C44.784 155.68 46.728 153.856 49.176 152.608C51.672 151.36 54.504 150.736 57.672 150.736C62.808 150.736 66.768 152.128 69.552 154.912C72.336 157.648 73.728 161.32 73.728 165.928C73.728 168.856 73.08 171.688 71.784 174.424C70.536 177.112 68.88 179.68 66.816 182.128C64.752 184.576 62.448 186.904 59.904 189.112C57.408 191.32 54.888 193.432 52.344 195.448H75.096V202H41.04ZM98.6119 202.864C94.7239 202.864 91.3159 201.808 88.3879 199.696C85.5079 197.584 83.2759 194.584 81.6919 190.696C80.1079 186.76 79.3159 182.128 79.3159 176.8C79.3159 171.424 80.1079 166.792 81.6919 162.904C83.2759 159.016 85.5079 156.016 88.3879 153.904C91.3159 151.792 94.7239 150.736 98.6119 150.736C102.548 150.736 105.956 151.792 108.836 153.904C111.716 156.016 113.948 159.016 115.532 162.904C117.116 166.792 117.908 171.424 117.908 176.8C117.908 182.128 117.116 186.76 115.532 190.696C113.948 194.584 111.716 197.584 108.836 199.696C105.956 201.808 102.548 202.864 98.6119 202.864ZM87.0919 176.8C87.0919 179.488 87.3319 181.936 87.8119 184.144C88.2919 186.352 88.9639 188.272 89.8279 189.904L102.428 158.728C101.228 158.152 99.9559 157.864 98.6119 157.864C95.2519 157.864 92.4919 159.568 90.3319 162.976C88.1719 166.336 87.0919 170.944 87.0919 176.8ZM98.6119 195.808C100.868 195.808 102.86 195.04 104.588 193.504C106.316 191.968 107.66 189.784 108.62 186.952C109.628 184.072 110.132 180.688 110.132 176.8C110.132 174.112 109.892 171.664 109.412 169.456C108.932 167.248 108.26 165.352 107.396 163.768L94.7959 194.944C95.9959 195.52 97.2679 195.808 98.6119 195.808ZM123.064 202V195.952C128.008 192.016 132.328 188.392 136.024 185.08C139.768 181.768 142.696 178.576 144.808 175.504C146.92 172.432 147.976 169.312 147.976 166.144C147.976 163.504 147.232 161.44 145.744 159.952C144.256 158.416 142.24 157.648 139.696 157.648C136.768 157.648 134.512 158.584 132.928 160.456C131.344 162.28 130.552 164.464 130.552 167.008H123.136C123.184 163.456 123.928 160.48 125.368 158.08C126.808 155.68 128.752 153.856 131.2 152.608C133.696 151.36 136.528 150.736 139.696 150.736C144.832 150.736 148.792 152.128 151.576 154.912C154.36 157.648 155.752 161.32 155.752 165.928C155.752 168.856 155.104 171.688 153.808 174.424C152.56 177.112 150.904 179.68 148.84 182.128C146.776 184.576 144.472 186.904 141.928 189.112C139.432 191.32 136.912 193.432 134.368 195.448H157.12V202H123.064ZM180.996 202.864C177.684 202.864 174.684 202.24 171.996 200.992C169.308 199.744 167.172 197.92 165.588 195.52C164.004 193.072 163.14 190.12 162.996 186.664H170.628C170.772 189.304 171.732 191.488 173.508 193.216C175.332 194.944 177.828 195.808 180.996 195.808C184.116 195.808 186.564 195.04 188.34 193.504C190.116 191.968 191.004 189.856 191.004 187.168C191.004 184.192 189.924 182.008 187.764 180.616C185.604 179.224 182.964 178.528 179.844 178.528H175.38V171.76H179.196C182.028 171.76 184.356 171.184 186.18 170.032C188.004 168.88 188.916 167.08 188.916 164.632C188.916 162.52 188.22 160.864 186.828 159.664C185.436 158.416 183.468 157.792 180.924 157.792C178.332 157.792 176.268 158.488 174.732 159.88C173.196 161.272 172.332 163.048 172.14 165.208H164.58C164.724 162.328 165.492 159.808 166.884 157.648C168.276 155.488 170.172 153.808 172.572 152.608C174.972 151.36 177.756 150.736 180.924 150.736C184.38 150.736 187.26 151.336 189.564 152.536C191.868 153.688 193.596 155.248 194.748 157.216C195.9 159.184 196.476 161.392 196.476 163.84C196.476 166.336 195.732 168.496 194.244 170.32C192.804 172.096 191.052 173.392 188.988 174.208V174.64C191.772 175.408 194.052 176.848 195.828 178.96C197.652 181.024 198.564 183.808 198.564 187.312C198.564 190.144 197.868 192.76 196.476 195.16C195.132 197.512 193.14 199.384 190.5 200.776C187.908 202.168 184.74 202.864 180.996 202.864Z" fill="#FFF7F7"/>
<path d="M96.048 58.32L96.1397 59.3158L97.048 59.2321V58.32H96.048ZM96.048 107.28H97.048V106.369L96.1409 106.284L96.048 107.28ZM96.048 108V109H97.048V108H96.048ZM75.096 108H74.096V109H75.096V108ZM75.096 107.28L74.9889 106.286L74.096 106.382V107.28H75.096ZM83.088 60.984H84.088L82.1943 60.5353L83.088 60.984ZM65.952 95.112L65.0736 95.5899L65.9875 97.2698L66.8457 95.5607L65.952 95.112ZM48.6 63.216L49.4784 62.7381L47.6 63.216H48.6ZM57.024 107.28H58.024V106.375L57.1235 106.285L57.024 107.28ZM57.024 108V109H58.024V108H57.024ZM39.24 108H38.24V109H39.24V108ZM39.24 107.28L39.1419 106.285L38.24 106.374V107.28H39.24ZM47.304 102.096L48.3038 102.114L48.304 102.105V102.096H47.304ZM38.88 58.32H37.88V59.2332L38.7895 59.3159L38.88 58.32ZM38.88 57.6V56.6H37.88V57.6H38.88ZM50.76 57.6L51.636 57.1177L51.351 56.6H50.76V57.6ZM67.608 88.2L66.732 88.6823L67.6454 90.3413L68.5003 88.6514L67.608 88.2ZM83.088 57.6V56.6H82.4732L82.1957 57.1486L83.088 57.6ZM96.048 57.6H97.048V56.6H96.048V57.6ZM95.9563 57.3242C93.2692 57.5717 90.9725 57.8472 89.3637 58.6722C88.5196 59.1051 87.8263 59.7049 87.3576 60.5473C86.8954 61.3782 86.696 62.3653 86.696 63.504H88.696C88.696 62.5907 88.8566 61.9668 89.1054 61.5197C89.3477 61.0841 89.7164 60.7389 90.2763 60.4518C91.4755 59.8368 93.3548 59.5723 96.1397 59.3158L95.9563 57.3242ZM86.696 63.504V102.096H88.696V63.504H86.696ZM86.696 102.096C86.696 103.238 86.9012 104.227 87.371 105.059C87.8466 105.9 88.5466 106.498 89.393 106.929C91.0088 107.752 93.303 108.028 95.9551 108.276L96.1409 106.284C93.393 106.028 91.5112 105.764 90.301 105.147C89.7344 104.858 89.359 104.511 89.1122 104.074C88.8598 103.628 88.696 103.006 88.696 102.096H86.696ZM95.048 107.28V108H97.048V107.28H95.048ZM96.048 107H75.096V109H96.048V107ZM76.096 108V107.28H74.096V108H76.096ZM75.2031 108.274C77.5083 108.026 79.6985 107.729 81.3055 106.9C82.1385 106.47 82.8544 105.88 83.3535 105.053C83.8515 104.228 84.088 103.243 84.088 102.096H82.088C82.088 102.965 81.9105 103.573 81.6412 104.019C81.3731 104.464 80.9685 104.823 80.3885 105.122C79.1695 105.751 77.3638 106.03 74.9889 106.286L75.2031 108.274ZM84.088 102.096V60.984H82.088V102.096H84.088ZM82.1943 60.5353L65.0583 94.6633L66.8457 95.5607L83.9817 61.4327L82.1943 60.5353ZM66.8304 94.6341L49.4784 62.7381L47.7216 63.6939L65.0736 95.5899L66.8304 94.6341ZM47.6 63.216V102.096H49.6V63.216H47.6ZM47.6 102.096C47.6 103.261 47.8411 104.26 48.3575 105.093C48.875 105.928 49.6184 106.515 50.4836 106.937C52.1505 107.75 54.4477 108.027 56.9245 108.275L57.1235 106.285C54.5603 106.029 52.6455 105.766 51.3604 105.139C50.7496 104.841 50.332 104.483 50.0575 104.04C49.7819 103.595 49.6 102.983 49.6 102.096H47.6ZM56.024 107.28V108H58.024V107.28H56.024ZM57.024 107H39.24V109H57.024V107ZM40.24 108V107.28H38.24V108H40.24ZM39.3381 108.275C41.8556 108.027 44.0594 107.732 45.6323 106.894C46.4538 106.456 47.1336 105.857 47.6026 105.029C48.0666 104.21 48.2838 103.238 48.3038 102.114L46.3042 102.078C46.2882 102.97 46.1184 103.591 45.8624 104.043C45.6114 104.486 45.2382 104.837 44.6917 105.128C43.5286 105.748 41.7364 106.029 39.1419 106.285L39.3381 108.275ZM48.304 102.096V63.504H46.304V102.096H48.304ZM48.304 63.504C48.304 62.3654 48.1047 61.3777 47.6406 60.5462C47.17 59.703 46.4736 59.1034 45.625 58.671C44.0076 57.8469 41.6934 57.5716 38.9705 57.3241L38.7895 59.3159C41.6106 59.5724 43.5084 59.8371 44.717 60.453C45.2814 60.7406 45.6515 61.086 45.8942 61.5208C46.1433 61.9673 46.304 62.5906 46.304 63.504H48.304ZM39.88 58.32V57.6H37.88V58.32H39.88ZM38.88 58.6H50.76V56.6H38.88V58.6ZM49.884 58.0823L66.732 88.6823L68.484 87.7177L51.636 57.1177L49.884 58.0823ZM68.5003 88.6514L83.9803 58.0514L82.1957 57.1486L66.7157 87.7486L68.5003 88.6514ZM83.088 58.6H96.048V56.6H83.088V58.6ZM95.048 57.6V58.32H97.048V57.6H95.048ZM119.088 70.92L119.081 71.92H119.082L119.088 70.92ZM135.36 84.96V85.96H136.36V84.96H135.36ZM105.912 84.96V83.96H105.114L104.937 84.7384L105.912 84.96ZM134.424 97.56L134.805 96.6353L133.78 96.2134L133.465 97.2759L134.424 97.56ZM135.648 98.064L136.589 98.4019L136.912 97.503L136.029 97.1393L135.648 98.064ZM106.2 83.664L105.232 83.4147L104.91 84.664H106.2V83.664ZM130.896 83.664V84.664H131.979L131.893 83.5843L130.896 83.664ZM119.376 72.216L119.364 73.216H119.376V72.216ZM119.88 108.08C114.394 108.08 109.908 106.187 106.794 103.04C103.678 99.8904 101.872 95.4189 101.872 90.144H99.872C99.872 95.8851 101.846 100.882 105.372 104.446C108.9 108.013 113.918 110.08 119.88 110.08V108.08ZM101.872 90.144C101.872 84.8184 103.616 80.2481 106.609 77.0277C109.594 73.8147 113.875 71.8857 119.081 71.92L119.095 69.92C113.357 69.8823 108.53 72.0213 105.143 75.6663C101.764 79.3039 99.872 84.3816 99.872 90.144H101.872ZM119.082 71.92C124.465 71.9547 128.266 73.5478 130.715 75.9063C133.166 78.2659 134.36 81.4839 134.36 84.96H136.36C136.36 81.0201 134.998 77.2541 132.103 74.4657C129.206 71.6762 124.871 69.9573 119.094 69.92L119.082 71.92ZM135.36 83.96H105.912V85.96H135.36V83.96ZM104.937 84.7384C104.556 86.4137 104.408 88.1473 104.408 90H106.408C106.408 88.2527 106.548 86.6743 106.887 85.1816L104.937 84.7384ZM104.408 90C104.408 95.6299 106.069 100.324 108.947 103.626C111.834 106.937 115.892 108.784 120.528 108.784V106.784C116.452 106.784 112.95 105.175 110.455 102.312C107.951 99.44 106.408 95.2421 106.408 90H104.408ZM120.528 108.784C128.425 108.784 133.54 104.063 135.383 97.8441L133.465 97.2759C131.852 102.721 127.463 106.784 120.528 106.784V108.784ZM134.043 98.4847L135.267 98.9887L136.029 97.1393L134.805 96.6353L134.043 98.4847ZM134.707 97.7261C133.739 100.423 132.241 103.001 129.912 104.904C127.599 106.794 124.391 108.08 119.88 108.08V110.08C124.801 110.08 128.469 108.666 131.178 106.452C133.871 104.251 135.541 101.321 136.589 98.4019L134.707 97.7261ZM106.2 84.664H130.896V82.664H106.2V84.664ZM131.893 83.5843C131.589 79.7913 130.233 76.6866 128.022 74.5249C125.806 72.359 122.809 71.216 119.376 71.216V73.216C122.351 73.216 124.826 74.197 126.624 75.9551C128.427 77.7174 129.627 80.3367 129.899 83.7437L131.893 83.5843ZM119.388 71.2161C112.794 71.1376 107.196 75.7846 105.232 83.4147L107.168 83.9133C108.948 76.9994 113.862 73.1504 119.364 73.2159L119.388 71.2161ZM159.397 70.92L159.39 71.92H159.39L159.397 70.92ZM175.669 84.96V85.96H176.669V84.96H175.669ZM146.221 84.96V83.96H145.423L145.246 84.7384L146.221 84.96ZM174.733 97.56L175.113 96.6353L174.089 96.2134L173.774 97.2759L174.733 97.56ZM175.957 98.064L176.898 98.4019L177.221 97.503L176.338 97.1393L175.957 98.064ZM146.509 83.664L145.54 83.4147L145.219 84.664H146.509V83.664ZM171.205 83.664V84.664H172.288L172.202 83.5843L171.205 83.664ZM159.685 72.216L159.673 73.216H159.685V72.216ZM160.189 108.08C154.703 108.08 150.216 106.187 147.103 103.04C143.987 99.8904 142.181 95.4189 142.181 90.144H140.181C140.181 95.8851 142.154 100.882 145.681 104.446C149.209 108.013 154.227 110.08 160.189 110.08V108.08ZM142.181 90.144C142.181 84.8184 143.925 80.2481 146.917 77.0277C149.903 73.8147 154.183 71.8857 159.39 71.92L159.403 69.92C153.666 69.8823 148.839 72.0213 145.452 75.6663C142.072 79.3039 140.181 84.3816 140.181 90.144H142.181ZM159.39 71.92C164.774 71.9547 168.575 73.5478 171.024 75.9063C173.474 78.2659 174.669 81.4839 174.669 84.96H176.669C176.669 81.0201 175.307 77.2541 172.411 74.4657C169.515 71.6762 165.18 69.9573 159.403 69.92L159.39 71.92ZM175.669 83.96H146.221V85.96H175.669V83.96ZM145.246 84.7384C144.865 86.4137 144.717 88.1473 144.717 90H146.717C146.717 88.2527 146.857 86.6743 147.196 85.1816L145.246 84.7384ZM144.717 90C144.717 95.6299 146.377 100.324 149.256 103.626C152.142 106.937 156.2 108.784 160.837 108.784V106.784C156.761 106.784 153.259 105.175 150.764 102.312C148.26 99.44 146.717 95.2421 146.717 90H144.717ZM160.837 108.784C168.734 108.784 173.849 104.063 175.692 97.8441L173.774 97.2759C172.161 102.721 167.772 106.784 160.837 106.784V108.784ZM174.352 98.4847L175.576 98.9887L176.338 97.1393L175.113 96.6353L174.352 98.4847ZM175.016 97.7261C174.048 100.423 172.55 103.001 170.221 104.904C167.907 106.794 164.7 108.08 160.189 108.08V110.08C165.11 110.08 168.778 108.666 171.487 106.452C174.18 104.251 175.85 101.321 176.898 98.4019L175.016 97.7261ZM146.509 84.664H171.205V82.664H146.509V84.664ZM172.202 83.5843C171.898 79.7913 170.542 76.6866 168.331 74.5249C166.115 72.359 163.118 71.216 159.685 71.216V73.216C162.66 73.216 165.134 74.197 166.933 75.9551C168.735 77.7174 169.935 80.3367 170.208 83.7437L172.202 83.5843ZM159.697 71.2161C153.103 71.1376 147.505 75.7846 145.54 83.4147L147.477 83.9133C149.257 76.9994 154.171 73.1504 159.673 73.2159L159.697 71.2161ZM179.114 73.296H178.114V74.296H179.114V73.296ZM179.114 72L179.104 71L178.114 71.0094V72H179.114ZM188.258 57.6V56.6H187.302L187.259 57.554L188.258 57.6ZM189.41 57.6H190.41V56.6H189.41V57.6ZM189.41 72H188.41V73H189.41V72ZM202.73 72H203.73V71H202.73V72ZM202.73 73.296V74.296H203.73V73.296H202.73ZM189.41 73.296V72.296H188.41V73.296H189.41ZM205.105 101.448L205.553 100.554L204.517 100.035L204.155 101.136L205.105 101.448ZM206.258 102.024L207.19 102.386L207.52 101.537L206.705 101.13L206.258 102.024ZM185.378 73.296H186.378V72.296H185.378V73.296ZM180.114 73.296V72H178.114V73.296H180.114ZM179.123 73C181.09 72.9814 182.733 72.7509 184.081 72.1793C185.463 71.5936 186.486 70.6703 187.227 69.3728C187.95 68.1066 188.385 66.5161 188.678 64.6083C188.971 62.6949 189.13 60.3863 189.256 57.646L187.259 57.554C187.133 60.2857 186.977 62.5041 186.701 64.3054C186.424 66.1124 186.036 67.4244 185.49 68.3812C184.962 69.3067 184.271 69.9269 183.301 70.3379C182.298 70.7631 180.953 70.9826 179.104 71L179.123 73ZM188.258 58.6H189.41V56.6H188.258V58.6ZM188.41 57.6V72H190.41V57.6H188.41ZM189.41 73H202.73V71H189.41V73ZM201.73 72V73.296H203.73V72H201.73ZM202.73 72.296H189.41V74.296H202.73V72.296ZM188.41 73.296V97.776H190.41V73.296H188.41ZM188.41 97.776C188.41 101.148 189.157 103.852 190.572 105.738C192.011 107.657 194.077 108.64 196.465 108.64V106.64C194.678 106.64 193.216 105.931 192.172 104.538C191.102 103.112 190.41 100.884 190.41 97.776H188.41ZM196.465 108.64C199.861 108.64 204.372 106.892 206.056 101.76L204.155 101.136C202.815 105.22 199.262 106.64 196.465 106.64V108.64ZM204.658 102.342L205.81 102.918L206.705 101.13L205.553 100.554L204.658 102.342ZM205.326 101.662C204.389 104.07 203.013 105.648 201.353 106.637C199.68 107.635 197.639 108.08 195.314 108.08V110.08C197.884 110.08 200.307 109.589 202.378 108.355C204.462 107.112 206.11 105.162 207.19 102.386L205.326 101.662ZM195.314 108.08C192.623 108.08 190.438 107.311 188.915 105.687C187.383 104.054 186.378 101.403 186.378 97.344H184.378C184.378 101.709 185.46 104.926 187.456 107.055C189.461 109.193 192.244 110.08 195.314 110.08V108.08ZM186.378 97.344V73.296H184.378V97.344H186.378ZM185.378 72.296H179.114V74.296H185.378V72.296ZM250.121 108.08C244.675 108.08 240.017 106.382 236.732 103.35C233.456 100.327 231.465 95.9056 231.465 90.288H229.465C229.465 96.4064 231.649 101.381 235.375 104.82C239.092 108.25 244.263 110.08 250.121 110.08V108.08ZM231.465 90.288C231.465 84.6672 233.459 80.0932 236.748 76.9229C240.041 73.7484 244.696 71.92 250.121 71.92V69.92C244.241 69.92 239.069 71.9076 235.36 75.4831C231.646 79.0628 229.465 84.1728 229.465 90.288H231.465ZM250.121 71.92C255.507 71.92 260.106 73.7467 263.354 76.9184C266.598 80.0869 268.561 84.6618 268.561 90.288H270.561C270.561 84.1782 268.419 79.0691 264.751 75.4876C261.087 71.9093 255.966 69.92 250.121 69.92V71.92ZM268.561 90.288C268.561 95.9111 266.601 100.333 263.37 103.355C260.13 106.384 255.529 108.08 250.121 108.08V110.08C255.945 110.08 261.064 108.248 264.736 104.815C268.416 101.375 270.561 96.4009 270.561 90.288H268.561ZM250.121 108.856C258.602 108.856 266.025 101.916 266.025 90.288H264.025C264.025 100.98 257.336 106.856 250.121 106.856V108.856ZM266.025 90.288C266.025 78.1824 258.626 71.144 250.121 71.144V73.144C257.312 73.144 264.025 79.0656 264.025 90.288H266.025ZM250.121 71.144C241.481 71.144 234.001 78.2445 234.001 90.288H236.001C236.001 79.1475 242.777 73.144 250.121 73.144V71.144ZM234.001 90.288C234.001 101.854 241.505 108.856 250.121 108.856V106.856C242.753 106.856 236.001 100.898 236.001 90.288H234.001ZM272.462 72.72H271.462V73.6391L272.378 73.7164L272.462 72.72ZM272.462 72V71H271.462V72H272.462ZM284.27 72H285.27V71H284.27V72ZM301.19 72.72H300.19V73.6263L301.092 73.7152L301.19 72.72ZM301.19 72V71H300.19V72H301.19ZM312.998 72H313.998V71H312.998V72ZM320.702 107.28H321.702V106.374L320.8 106.285L320.702 107.28ZM320.702 108V109H321.702V108H320.702ZM308.966 108H307.966V109H308.966V108ZM308.966 102.024H309.966V98.7447L308.136 101.466L308.966 102.024ZM295.07 108.08C291.283 108.08 287.811 107.191 285.312 105.311C282.854 103.461 281.238 100.581 281.238 96.336H279.238C279.238 101.163 281.114 104.655 284.11 106.909C287.065 109.133 291.009 110.08 295.07 110.08V108.08ZM281.238 96.336V77.904H279.238V96.336H281.238ZM281.238 77.904C281.238 76.7753 281.056 75.796 280.632 74.9681C280.201 74.1254 279.557 73.51 278.755 73.062C277.23 72.21 275.062 71.9361 272.546 71.7236L272.378 73.7164C274.974 73.9359 276.694 74.202 277.779 74.808C278.282 75.089 278.623 75.4321 278.852 75.8787C279.087 76.34 279.238 76.9807 279.238 77.904H281.238ZM273.462 72.72V72H271.462V72.72H273.462ZM272.462 73H284.27V71H272.462V73ZM283.27 72V95.904H285.27V72H283.27ZM283.27 95.904C283.27 100.324 284.785 103.581 287.187 105.722C289.568 107.846 292.721 108.784 295.862 108.784V106.784C293.099 106.784 290.456 105.958 288.518 104.23C286.599 102.519 285.27 99.8363 285.27 95.904H283.27ZM295.862 108.784C303.525 108.784 309.966 102.232 309.966 93.528H307.966C307.966 101.24 302.312 106.784 295.862 106.784V108.784ZM309.966 93.528V77.904H307.966V93.528H309.966ZM309.966 77.904C309.966 76.7756 309.784 75.7991 309.359 74.9751C308.926 74.1359 308.279 73.5283 307.478 73.0864C305.959 72.2484 303.794 71.9719 301.288 71.7248L301.092 73.7152C303.698 73.9721 305.421 74.2356 306.512 74.8376C307.016 75.1157 307.355 75.4531 307.581 75.8919C307.815 76.3459 307.966 76.9804 307.966 77.904H309.966ZM302.19 72.72V72H300.19V72.72H302.19ZM301.19 73H312.998V71H301.19V73ZM311.998 72V102.096H313.998V72H311.998ZM311.998 102.096C311.998 103.221 312.175 104.195 312.59 105.017C313.014 105.856 313.651 106.466 314.445 106.911C315.948 107.752 318.099 108.028 320.604 108.275L320.8 106.285C318.193 106.028 316.492 105.764 315.421 105.165C314.928 104.89 314.597 104.555 314.375 104.116C314.145 103.66 313.998 103.023 313.998 102.096H311.998ZM319.702 107.28V108H321.702V107.28H319.702ZM320.702 107H308.966V109H320.702V107ZM309.966 108V102.024H307.966V108H309.966ZM308.136 101.466C305.522 105.354 300.655 108.08 295.07 108.08V110.08C301.293 110.08 306.794 107.046 309.796 102.582L308.136 101.466ZM340.736 107.28H341.736V106.375L340.835 106.285L340.736 107.28ZM340.736 108V109H341.736V108H340.736ZM321.224 108H320.224V109H321.224V108ZM321.224 107.28L321.125 106.285L320.224 106.374V107.28H321.224ZM321.224 72.72H320.224V73.6275L321.127 73.7153L321.224 72.72ZM321.224 72V71H320.224V72H321.224ZM333.031 72H334.031V71H333.031V72ZM333.031 78.696H332.031V82.437L333.898 79.195L333.031 78.696ZM355.568 74.376L356.553 74.2067L356.482 73.7915L356.135 73.5525L355.568 74.376ZM357.583 86.112V87.112H358.77L358.569 85.9427L357.583 86.112ZM356.792 86.112L355.842 86.4259L356.069 87.112H356.792V86.112ZM332.031 102.096C332.031 103.225 332.214 104.2 332.637 105.024C333.068 105.862 333.712 106.47 334.508 106.912C336.018 107.751 338.166 108.028 340.636 108.275L340.835 106.285C338.265 106.028 336.561 105.765 335.479 105.164C334.979 104.886 334.642 104.549 334.416 104.109C334.182 103.655 334.031 103.019 334.031 102.096H332.031ZM339.736 107.28V108H341.736V107.28H339.736ZM340.736 107H321.224V109H340.736V107ZM322.224 108V107.28H320.224V108H322.224ZM321.322 108.275C323.835 108.027 325.998 107.732 327.516 106.884C328.314 106.438 328.959 105.83 329.391 104.996C329.816 104.177 330 103.209 330 102.096H328C328 102.999 327.85 103.624 327.616 104.076C327.389 104.514 327.048 104.855 326.541 105.138C325.449 105.748 323.724 106.029 321.125 106.285L321.322 108.275ZM330 102.096V77.904H328V102.096H330ZM330 77.904C330 76.7792 329.823 75.8046 329.405 74.9813C328.98 74.1414 328.34 73.5316 327.541 73.0878C326.029 72.2478 323.861 71.9717 321.32 71.7247L321.127 73.7153C323.77 73.9723 325.49 74.2362 326.57 74.8362C327.067 75.1124 327.399 75.4476 327.622 75.8857C327.852 76.3404 328 76.9768 328 77.904H330ZM322.224 72.72V72H320.224V72.72H322.224ZM321.224 73H333.031V71H321.224V73ZM332.031 72V78.696H334.031V72H332.031ZM333.898 79.195C336.502 74.6721 340.674 71.92 344.984 71.92V69.92C339.789 69.92 335.033 73.2159 332.165 78.197L333.898 79.195ZM344.984 71.92C348.502 71.92 351.907 73.0685 355 75.1995L356.135 73.5525C352.748 71.2195 348.953 69.92 344.984 69.92V71.92ZM354.582 74.5453L356.598 86.2813L358.569 85.9427L356.553 74.2067L354.582 74.5453ZM357.583 85.112H356.792V87.112H357.583V85.112ZM357.741 85.7981C354.846 77.0412 350.383 71.36 343.904 71.36V73.36C348.944 73.36 352.977 77.7588 355.842 86.4259L357.741 85.7981ZM343.904 71.36C341.213 71.36 338.238 73.0109 335.973 75.7137C333.683 78.4463 332.031 82.3447 332.031 87.048H334.031C334.031 82.8233 335.512 79.3777 337.506 76.9983C339.525 74.5891 341.986 73.36 343.904 73.36V71.36ZM332.031 87.048V102.096H334.031V87.048H332.031ZM380.536 73.296H379.536V74.296H380.536V73.296ZM380.536 72L380.527 71L379.536 71.0094V72H380.536ZM389.68 57.6V56.6H388.725L388.681 57.554L389.68 57.6ZM390.832 57.6H391.832V56.6H390.832V57.6ZM390.832 72H389.832V73H390.832V72ZM404.152 72H405.152V71H404.152V72ZM404.152 73.296V74.296H405.152V73.296H404.152ZM390.832 73.296V72.296H389.832V73.296H390.832ZM406.528 101.448L406.976 100.554L405.939 100.035L405.578 101.136L406.528 101.448ZM407.68 102.024L408.612 102.386L408.943 101.537L408.128 101.13L407.68 102.024ZM386.8 73.296H387.8V72.296H386.8V73.296ZM381.536 73.296V72H379.536V73.296H381.536ZM380.546 73C382.513 72.9814 384.156 72.7509 385.504 72.1793C386.886 71.5936 387.909 70.6703 388.65 69.3728C389.373 68.1066 389.808 66.5161 390.101 64.6083C390.394 62.6949 390.553 60.3863 390.679 57.646L388.681 57.554C388.556 60.2857 388.4 62.5041 388.124 64.3054C387.847 66.1124 387.459 67.4244 386.913 68.3812C386.385 69.3067 385.693 69.9269 384.724 70.3379C383.721 70.7631 382.376 70.9826 380.527 71L380.546 73ZM389.68 58.6H390.832V56.6H389.68V58.6ZM389.832 57.6V72H391.832V57.6H389.832ZM390.832 73H404.152V71H390.832V73ZM403.152 72V73.296H405.152V72H403.152ZM404.152 72.296H390.832V74.296H404.152V72.296ZM389.832 73.296V97.776H391.832V73.296H389.832ZM389.832 97.776C389.832 101.148 390.58 103.852 391.994 105.738C393.434 107.657 395.5 108.64 397.888 108.64V106.64C396.101 106.64 394.639 105.931 393.594 104.538C392.525 103.112 391.832 100.884 391.832 97.776H389.832ZM397.888 108.64C401.284 108.64 405.795 106.892 407.478 101.76L405.578 101.136C404.238 105.22 400.685 106.64 397.888 106.64V108.64ZM406.081 102.342L407.233 102.918L408.128 101.13L406.976 100.554L406.081 102.342ZM406.748 101.662C405.812 104.07 404.436 105.648 402.776 106.637C401.102 107.635 399.062 108.08 396.736 108.08V110.08C399.306 110.08 401.73 109.589 403.8 108.355C405.885 107.112 407.533 105.162 408.612 102.386L406.748 101.662ZM396.736 108.08C394.046 108.08 391.861 107.311 390.338 105.687C388.806 104.054 387.8 101.403 387.8 97.344H385.8C385.8 101.709 386.883 104.926 388.879 107.055C390.884 109.193 393.667 110.08 396.736 110.08V108.08ZM387.8 97.344V73.296H385.8V97.344H387.8ZM386.8 72.296H380.536V74.296H386.8V72.296ZM429.554 70.92L429.548 71.92H429.548L429.554 70.92ZM445.826 84.96V85.96H446.826V84.96H445.826ZM416.378 84.96V83.96H415.58L415.403 84.7384L416.378 84.96ZM444.89 97.56L445.271 96.6353L444.246 96.2134L443.931 97.2759L444.89 97.56ZM446.114 98.064L447.055 98.4019L447.378 97.503L446.495 97.1393L446.114 98.064ZM416.666 83.664L415.698 83.4147L415.376 84.664H416.666V83.664ZM441.362 83.664V84.664H442.445L442.359 83.5843L441.362 83.664ZM429.842 72.216L429.83 73.216H429.842V72.216ZM430.346 108.08C424.86 108.08 420.374 106.187 417.26 103.04C414.145 99.8904 412.338 95.4189 412.338 90.144H410.338C410.338 95.8851 412.312 100.882 415.838 104.446C419.367 108.013 424.384 110.08 430.346 110.08V108.08ZM412.338 90.144C412.338 84.8184 414.083 80.2481 417.075 77.0277C420.06 73.8147 424.341 71.8857 429.548 71.92L429.561 69.92C423.824 69.8823 418.996 72.0213 415.61 75.6663C412.23 79.3039 410.338 84.3816 410.338 90.144H412.338ZM429.548 71.92C434.931 71.9547 438.732 73.5478 441.182 75.9063C443.632 78.2659 444.826 81.4839 444.826 84.96H446.826C446.826 81.0201 445.465 77.2541 442.569 74.4657C439.672 71.6762 435.337 69.9573 429.561 69.92L429.548 71.92ZM445.826 83.96H416.378V85.96H445.826V83.96ZM415.403 84.7384C415.022 86.4137 414.874 88.1473 414.874 90H416.874C416.874 88.2527 417.014 86.6743 417.353 85.1816L415.403 84.7384ZM414.874 90C414.874 95.6299 416.535 100.324 419.413 103.626C422.3 106.937 426.358 108.784 430.994 108.784V106.784C426.919 106.784 423.417 105.175 420.921 102.312C418.418 99.44 416.874 95.2421 416.874 90H414.874ZM430.994 108.784C438.891 108.784 444.006 104.063 445.849 97.8441L443.931 97.2759C442.318 102.721 437.929 106.784 430.994 106.784V108.784ZM444.509 98.4847L445.733 98.9887L446.495 97.1393L445.271 96.6353L444.509 98.4847ZM445.173 97.7261C444.205 100.423 442.707 103.001 440.378 104.904C438.065 106.794 434.857 108.08 430.346 108.08V110.08C435.267 110.08 438.936 108.666 441.644 106.452C444.337 104.251 446.007 101.321 447.055 98.4019L445.173 97.7261ZM416.666 84.664H441.362V82.664H416.666V84.664ZM442.359 83.5843C442.056 79.7913 440.7 76.6866 438.488 74.5249C436.273 72.359 433.275 71.216 429.842 71.216V73.216C432.817 73.216 435.292 74.197 437.09 75.9551C438.893 77.7174 440.093 80.3367 440.365 83.7437L442.359 83.5843ZM429.854 71.2161C423.26 71.1376 417.662 75.7846 415.698 83.4147L417.635 83.9133C419.414 76.9994 424.328 73.1504 429.83 73.2159L429.854 71.2161ZM480.303 79.776L480.407 80.7706L481.47 80.6593L481.288 79.6057L480.303 79.776ZM453.879 86.112V87.112H454.574L454.816 86.461L453.879 86.112ZM453.159 86.112L452.176 85.931L451.958 87.112H453.159V86.112ZM455.319 74.376L454.899 73.4687L454.429 73.6862L454.336 74.195L455.319 74.376ZM490.959 102.96L491.54 102.146L490.463 101.377L490.017 102.624L490.959 102.96ZM491.967 103.68L492.904 104.029L493.171 103.311L492.548 102.866L491.967 103.68ZM480.735 103.176L481.731 103.09L481.509 100.517L479.941 102.569L480.735 103.176ZM467.271 107.712L467.283 106.712H467.271V107.712ZM480.519 81.072L481.512 80.9552L481.395 79.9629L480.403 80.0787L480.519 81.072ZM466.551 108.008C462.953 108.008 459.59 107.123 457.157 105.402C454.759 103.705 453.223 101.175 453.223 97.704H451.223C451.223 101.865 453.107 104.987 456.001 107.034C458.86 109.057 462.661 110.008 466.551 110.008V108.008ZM453.223 97.704C453.223 94.2869 455.336 90.561 459.869 87.4003C464.392 84.2462 471.237 81.7302 480.407 80.7706L480.199 78.7814C470.793 79.7658 463.598 82.3618 458.725 85.7597C453.862 89.151 451.223 93.4171 451.223 97.704H453.223ZM481.288 79.6057C480.726 76.3512 478.838 74.225 476.576 72.9396C474.345 71.6717 471.751 71.216 469.647 71.216V73.216C471.503 73.216 473.733 73.6243 475.588 74.6784C477.412 75.715 478.872 77.3688 479.318 79.9463L481.288 79.6057ZM469.647 71.216C465.324 71.216 462.079 72.1149 459.42 74.5054C456.817 76.8469 454.894 80.52 452.942 85.763L454.816 86.461C456.752 81.264 458.537 77.9891 460.758 75.9926C462.923 74.0451 465.618 73.216 469.647 73.216V71.216ZM453.879 85.112H453.159V87.112H453.879V85.112ZM454.142 86.293L456.302 74.557L454.336 74.195L452.176 85.931L454.142 86.293ZM455.739 75.2833C458.67 73.925 463.11 71.92 469.071 71.92V69.92C462.648 69.92 457.872 72.0909 454.899 73.4687L455.739 75.2833ZM469.071 71.92C473.262 71.92 476.932 72.532 479.538 74.3266C482.066 76.0678 483.767 79.0488 483.767 84.24H485.767C485.767 78.5592 483.868 74.8802 480.672 72.6794C477.554 70.532 473.376 69.92 469.071 69.92V71.92ZM483.767 84.24V100.584H485.767V84.24H483.767ZM483.767 100.584C483.767 102.96 483.814 104.829 484.151 106.104C484.324 106.758 484.6 107.376 485.091 107.829C485.608 108.307 486.249 108.496 486.927 108.496V106.496C486.633 106.496 486.517 106.424 486.448 106.36C486.351 106.27 486.209 106.065 486.085 105.594C485.828 104.619 485.767 103.032 485.767 100.584H483.767ZM486.927 108.496C488.048 108.496 489.036 107.928 489.847 107.033C490.65 106.145 491.336 104.878 491.901 103.296L490.017 102.624C489.502 104.066 488.928 105.067 488.363 105.691C487.806 106.308 487.318 106.496 486.927 106.496V108.496ZM490.378 103.774L491.386 104.494L492.548 102.866L491.54 102.146L490.378 103.774ZM491.03 103.331C490.375 105.09 489.638 106.271 488.808 107.011C488.008 107.725 487.063 108.08 485.847 108.08V110.08C487.511 110.08 488.942 109.571 490.14 108.503C491.308 107.461 492.191 105.942 492.904 104.029L491.03 103.331ZM485.847 108.08C484.66 108.08 483.762 107.723 483.107 107.015C482.43 106.283 481.9 105.052 481.731 103.09L479.739 103.262C479.93 105.476 480.552 107.197 481.639 108.373C482.748 109.573 484.226 110.08 485.847 110.08V108.08ZM479.941 102.569C477.381 105.916 472.399 108.008 466.551 108.008V110.008C472.799 110.008 478.473 107.78 481.529 103.783L479.941 102.569ZM467.259 108.712C470.527 108.75 474.112 107.679 476.9 105.576C479.709 103.457 481.735 100.263 481.735 96.12H479.735C479.735 99.5367 478.089 102.175 475.696 103.98C473.282 105.801 470.135 106.746 467.283 106.712L467.259 108.712ZM481.735 96.12V85.248H479.735V96.12H481.735ZM481.735 85.248C481.735 83.9992 481.662 82.2299 481.512 80.9552L479.526 81.1888C479.664 82.3621 479.735 84.0488 479.735 85.248H481.735ZM480.403 80.0787C473.248 80.9141 467.112 82.5953 462.738 85.4452C458.311 88.3297 455.687 92.4233 455.687 97.92H457.687C457.687 93.1927 459.887 89.6903 463.83 87.1208C467.826 84.5167 473.606 82.8859 480.635 82.0653L480.403 80.0787ZM455.687 97.92C455.687 101.502 457.023 104.241 459.204 106.067C461.361 107.872 464.253 108.712 467.271 108.712V106.712C464.601 106.712 462.201 105.968 460.488 104.533C458.799 103.119 457.687 100.962 457.687 97.92H455.687ZM493.449 107.28L493.35 106.285L492.449 106.374V107.28H493.449ZM493.449 72.72H492.449V73.6263L493.35 73.7152L493.449 72.72ZM493.449 72V71H492.449V72H493.449ZM505.185 72H506.185V71H505.185V72ZM505.185 77.832H504.185V80.9928L506.003 78.4072L505.185 77.832ZM533.769 79.128L532.838 79.4952L533.65 81.5502L534.658 79.5846L533.769 79.128ZM564.009 102.096L565.008 102.114L565.009 102.105V102.096H564.009ZM571.713 107.28H572.713V106.361L571.797 106.284L571.713 107.28ZM571.713 108V109H572.713V108H571.713ZM552.201 108H551.201V109H552.201V108ZM552.201 107.28L552.089 106.286L551.201 106.386V107.28H552.201ZM534.561 86.832L533.561 86.8245V86.832H534.561ZM542.337 107.28H543.337V106.361L542.421 106.284L542.337 107.28ZM542.337 108V109H543.337V108H542.337ZM522.825 108H521.825V109H522.825V108ZM522.825 107.28L522.713 106.286L521.825 106.386V107.28H522.825ZM505.185 86.544L504.185 86.5361V86.544H505.185ZM512.961 107.28H513.961V106.374L513.059 106.285L512.961 107.28ZM512.961 108V109H513.961V108H512.961ZM493.449 108H492.449V109H493.449V108ZM493.547 108.275C496.06 108.027 498.207 107.733 499.71 106.881C500.502 106.433 501.136 105.822 501.559 104.989C501.975 104.171 502.153 103.206 502.153 102.096H500.153C500.153 103.002 500.006 103.63 499.776 104.083C499.554 104.521 499.221 104.86 498.725 105.141C497.654 105.747 495.949 106.029 493.35 106.285L493.547 108.275ZM502.153 102.096V77.904H500.153V102.096H502.153ZM502.153 77.904C502.153 76.7791 501.976 75.8051 501.56 74.9825C501.136 74.1435 500.5 73.5335 499.706 73.0893C498.202 72.2482 496.051 71.9718 493.547 71.7248L493.35 73.7152C495.958 73.9722 497.659 74.2358 498.729 74.8347C499.222 75.1105 499.553 75.4455 499.775 75.8845C500.005 76.3399 500.153 76.9769 500.153 77.904H502.153ZM494.449 72.72V72H492.449V72.72H494.449ZM493.449 73H505.185V71H493.449V73ZM504.185 72V77.832H506.185V72H504.185ZM506.003 78.4072C509.014 74.1242 514.287 71.92 519.729 71.92V69.92C513.794 69.92 507.835 72.3238 504.367 77.2568L506.003 78.4072ZM519.729 71.92C525.666 71.92 530.879 74.5322 532.838 79.4952L534.699 78.7608C532.338 72.7798 526.175 69.92 519.729 69.92V71.92ZM534.658 79.5846C537.243 74.5476 543.086 71.92 549.033 71.92V69.92C542.595 69.92 535.91 72.7644 532.879 78.6714L534.658 79.5846ZM549.033 71.92C552.824 71.92 556.337 72.9557 558.878 74.9236C561.391 76.8699 563.009 79.7656 563.009 83.664H565.009C565.009 79.1384 563.098 75.6621 560.103 73.3424C557.136 71.0443 553.161 69.92 549.033 69.92V71.92ZM563.009 83.664V102.096H565.009V83.664H563.009ZM563.009 102.078C562.989 103.207 563.155 104.189 563.567 105.021C563.987 105.868 564.627 106.487 565.426 106.937C566.944 107.79 569.114 108.064 571.628 108.276L571.797 106.284C569.199 106.064 567.481 105.798 566.407 105.193C565.91 104.914 565.578 104.574 565.359 104.133C565.132 103.675 564.992 103.037 565.008 102.114L563.009 102.078ZM570.713 107.28V108H572.713V107.28H570.713ZM571.713 107H552.201V109H571.713V107ZM553.201 108V107.28H551.201V108H553.201ZM552.313 108.274C554.817 107.992 556.976 107.694 558.489 106.86C559.286 106.42 559.932 105.819 560.367 104.99C560.793 104.174 560.977 103.209 560.977 102.096H558.977C558.977 102.999 558.827 103.618 558.594 104.062C558.369 104.493 558.031 104.828 557.523 105.108C556.425 105.714 554.697 105.992 552.089 106.286L552.313 108.274ZM560.977 102.096V83.88H558.977V102.096H560.977ZM560.977 83.88C560.977 79.6615 559.452 76.4663 557.081 74.3344C554.729 72.2189 551.616 71.216 548.529 71.216V73.216C551.201 73.216 553.813 74.085 555.744 75.8216C557.657 77.5417 558.977 80.1785 558.977 83.88H560.977ZM548.529 71.216C544.664 71.216 540.934 72.5562 538.154 75.2096C535.364 77.8726 533.598 81.7947 533.561 86.8245L535.561 86.8395C535.595 82.2933 537.177 78.9074 539.535 76.6564C541.903 74.3958 545.121 73.216 548.529 73.216V71.216ZM533.561 86.832V102.096H535.561V86.832H533.561ZM533.561 102.096C533.561 103.225 533.743 104.204 534.166 105.032C534.597 105.875 535.242 106.49 536.044 106.938C537.569 107.79 539.737 108.064 542.252 108.276L542.421 106.284C539.824 106.064 538.104 105.798 537.019 105.192C536.516 104.911 536.175 104.568 535.947 104.121C535.711 103.66 535.561 103.019 535.561 102.096H533.561ZM541.337 107.28V108H543.337V107.28H541.337ZM542.337 107H522.825V109H542.337V107ZM523.825 108V107.28H521.825V108H523.825ZM522.937 108.274C525.441 107.992 527.6 107.694 529.113 106.86C529.91 106.42 530.556 105.819 530.991 104.99C531.417 104.174 531.601 103.209 531.601 102.096H529.601C529.601 102.999 529.451 103.618 529.218 104.062C528.993 104.493 528.655 104.828 528.147 105.108C527.049 105.714 525.321 105.992 522.713 106.286L522.937 108.274ZM531.601 102.096V83.88H529.601V102.096H531.601ZM531.601 83.88C531.601 79.6612 530.076 76.4632 527.674 74.3302C525.291 72.2142 522.124 71.216 518.937 71.216V73.216C521.725 73.216 524.391 74.0898 526.346 75.8258C528.282 77.5448 529.601 80.1788 529.601 83.88H531.601ZM518.937 71.216C511.361 71.216 504.261 76.8854 504.185 86.5361L506.185 86.5519C506.252 78.0586 512.4 73.216 518.937 73.216V71.216ZM504.185 86.544V102.096H506.185V86.544H504.185ZM504.185 102.096C504.185 103.224 504.367 104.201 504.792 105.025C505.225 105.864 505.872 106.472 506.673 106.914C508.191 107.752 510.357 108.028 512.862 108.275L513.059 106.285C510.452 106.028 508.73 105.764 507.639 105.162C507.135 104.884 506.796 104.547 506.569 104.108C506.335 103.654 506.185 103.02 506.185 102.096H504.185ZM511.961 107.28V108H513.961V107.28H511.961ZM512.961 107H493.449V109H512.961V107ZM494.449 108V107.28H492.449V108H494.449ZM41.04 202H40.04V203H41.04V202ZM41.04 195.952L40.4172 195.17L40.04 195.47V195.952H41.04ZM54 185.08L53.3374 184.331L53.3326 184.335L54 185.08ZM62.784 175.504L61.96 174.937L62.784 175.504ZM63.72 159.952L63.0018 160.648L63.0073 160.653L63.0129 160.659L63.72 159.952ZM50.904 160.456L51.6591 161.112L51.6674 161.102L50.904 160.456ZM48.528 167.008V168.008H49.528V167.008H48.528ZM41.112 167.008L40.1121 166.994L40.0984 168.008H41.112V167.008ZM43.344 158.08L44.2015 158.594L43.344 158.08ZM49.176 152.608L48.7288 151.714L48.7218 151.717L49.176 152.608ZM69.552 154.912L68.8449 155.619L68.8511 155.625L69.552 154.912ZM71.784 174.424L70.8802 173.996L70.877 174.003L71.784 174.424ZM66.816 182.128L67.5805 182.773L66.816 182.128ZM59.904 189.112L59.2485 188.357L59.2414 188.363L59.904 189.112ZM52.344 195.448L51.7229 194.664L49.472 196.448H52.344V195.448ZM75.096 195.448H76.096V194.448H75.096V195.448ZM75.096 202V203H76.096V202H75.096ZM42.04 202V195.952H40.04V202H42.04ZM41.6628 196.734C46.6182 192.789 50.9536 189.153 54.6674 185.825L53.3326 184.335C49.6544 187.631 45.3498 191.243 40.4172 195.17L41.6628 196.734ZM54.6626 185.829C58.4483 182.48 61.4372 179.228 63.608 176.071L61.96 174.937C59.9068 177.924 57.0397 181.056 53.3374 184.331L54.6626 185.829ZM63.608 176.071C65.8139 172.862 66.952 169.548 66.952 166.144H64.952C64.952 169.076 63.9781 172.002 61.96 174.937L63.608 176.071ZM66.952 166.144C66.952 163.31 66.1476 160.965 64.4271 159.245L63.0129 160.659C64.2684 161.915 64.952 163.698 64.952 166.144H66.952ZM64.4382 159.256C62.7265 157.489 60.4314 156.648 57.672 156.648V158.648C60.0006 158.648 61.7375 159.343 63.0018 160.648L64.4382 159.256ZM57.672 156.648C54.5127 156.648 51.9518 157.67 50.1406 159.81L51.6674 161.102C53.0242 159.498 54.9753 158.648 57.672 158.648V156.648ZM50.149 159.8C48.3981 161.816 47.528 164.237 47.528 167.008H49.528C49.528 164.691 50.2419 162.744 51.659 161.112L50.149 159.8ZM48.528 166.008H41.112V168.008H48.528V166.008ZM42.1119 167.022C42.1582 163.599 42.8738 160.807 44.2015 158.594L42.4865 157.566C40.9342 160.153 40.1618 163.313 40.1121 166.994L42.1119 167.022ZM44.2015 158.594C45.5469 156.352 47.3525 154.66 49.6302 153.499L48.7218 151.717C46.1035 153.052 44.0211 155.008 42.4865 157.566L44.2015 158.594ZM49.6232 153.502C51.9626 152.333 54.6381 151.736 57.672 151.736V149.736C54.3699 149.736 51.3814 150.387 48.7288 151.714L49.6232 153.502ZM57.672 151.736C62.6269 151.736 66.3005 153.075 68.8449 155.619L70.2591 154.205C67.2355 151.181 62.9891 149.736 57.672 149.736V151.736ZM68.8511 155.625C71.4095 158.14 72.728 161.536 72.728 165.928H74.728C74.728 161.104 73.2625 157.156 70.2529 154.199L68.8511 155.625ZM72.728 165.928C72.728 168.703 72.1151 171.389 70.8803 173.996L72.6877 174.852C74.0449 171.987 74.728 169.009 74.728 165.928H72.728ZM70.877 174.003C69.6692 176.604 68.0628 179.098 66.0515 181.483L67.5805 182.773C69.6972 180.262 71.4028 177.62 72.691 174.845L70.877 174.003ZM66.0515 181.483C64.0226 183.89 61.7554 186.181 59.2485 188.357L60.5595 189.867C63.1406 187.627 65.4814 185.262 67.5805 182.773L66.0515 181.483ZM59.2414 188.363C56.7586 190.559 54.2524 192.66 51.7229 194.664L52.9651 196.232C55.5236 194.204 58.0574 192.081 60.5666 189.861L59.2414 188.363ZM52.344 196.448H75.096V194.448H52.344V196.448ZM74.096 195.448V202H76.096V195.448H74.096ZM75.096 201H41.04V203H75.096V201ZM88.3879 199.696L87.7965 200.502L87.8029 200.507L88.3879 199.696ZM81.6919 190.696L80.7642 191.069L80.7658 191.073L81.6919 190.696ZM81.6919 162.904L80.7658 162.527L81.6919 162.904ZM88.3879 153.904L87.8029 153.093L87.7965 153.098L88.3879 153.904ZM108.836 153.904L109.427 153.098L108.836 153.904ZM115.532 162.904L116.458 162.527L115.532 162.904ZM115.532 190.696L116.458 191.073L116.46 191.069L115.532 190.696ZM108.836 199.696L109.427 200.502L108.836 199.696ZM87.8119 184.144L88.7891 183.932L87.8119 184.144ZM89.8279 189.904L88.9441 190.372L89.9497 192.271L90.755 190.279L89.8279 189.904ZM102.428 158.728L103.355 159.103L103.707 158.233L102.861 157.826L102.428 158.728ZM90.3319 162.976L91.1731 163.517L91.1765 163.511L90.3319 162.976ZM104.588 193.504L103.924 192.757L104.588 193.504ZM108.62 186.952L107.676 186.622L107.673 186.631L108.62 186.952ZM107.396 163.768L108.274 163.289L107.261 161.433L106.469 163.393L107.396 163.768ZM94.7959 194.944L93.8687 194.569L93.5171 195.439L94.3631 195.846L94.7959 194.944ZM98.6119 201.864C94.9168 201.864 91.7172 200.864 88.9729 198.885L87.8029 200.507C90.9145 202.752 94.5309 203.864 98.6119 203.864V201.864ZM88.9792 198.89C86.2728 196.905 84.1446 194.066 82.618 190.319L80.7658 191.073C82.4071 195.102 84.743 198.263 87.7965 200.502L88.9792 198.89ZM82.6196 190.323C81.0938 186.531 80.3159 182.032 80.3159 176.8H78.3159C78.3159 182.224 79.1219 186.989 80.7642 191.069L82.6196 190.323ZM80.3159 176.8C80.3159 171.519 81.0944 167.021 82.618 163.281L80.7658 162.527C79.1214 166.563 78.3159 171.329 78.3159 176.8H80.3159ZM82.618 163.281C84.1446 159.534 86.2728 156.695 88.9792 154.71L87.7965 153.098C84.743 155.337 82.4071 158.498 80.7658 162.527L82.618 163.281ZM88.9729 154.715C91.7172 152.736 94.9168 151.736 98.6119 151.736V149.736C94.5309 149.736 90.9145 150.848 87.8029 153.093L88.9729 154.715ZM98.6119 151.736C102.358 151.736 105.554 152.737 108.245 154.71L109.427 153.098C106.358 150.847 102.738 149.736 98.6119 149.736V151.736ZM108.245 154.71C110.951 156.695 113.079 159.534 114.606 163.281L116.458 162.527C114.817 158.498 112.481 155.337 109.427 153.098L108.245 154.71ZM114.606 163.281C116.129 167.021 116.908 171.519 116.908 176.8H118.908C118.908 171.329 118.102 166.563 116.458 162.527L114.606 163.281ZM116.908 176.8C116.908 182.032 116.13 186.531 114.604 190.323L116.46 191.069C118.102 186.989 118.908 182.224 118.908 176.8H116.908ZM114.606 190.319C113.079 194.066 110.951 196.905 108.245 198.89L109.427 200.502C112.481 198.263 114.817 195.102 116.458 191.073L114.606 190.319ZM108.245 198.89C105.554 200.863 102.358 201.864 98.6119 201.864V203.864C102.738 203.864 106.358 202.753 109.427 200.502L108.245 198.89ZM86.0919 176.8C86.0919 179.546 86.337 182.067 86.8347 184.356L88.7891 183.932C88.3268 181.805 88.0919 179.43 88.0919 176.8H86.0919ZM86.8347 184.356C87.3299 186.634 88.0292 188.644 88.9441 190.372L90.7117 189.436C89.8985 187.9 89.2538 186.07 88.7891 183.932L86.8347 184.356ZM90.755 190.279L103.355 159.103L101.501 158.353L88.9007 189.529L90.755 190.279ZM102.861 157.826C101.524 157.185 100.104 156.864 98.6119 156.864V158.864C99.8076 158.864 100.932 159.119 101.995 159.63L102.861 157.826ZM98.6119 156.864C94.8365 156.864 91.7879 158.811 89.4872 162.441L91.1765 163.511C93.1958 160.325 95.6673 158.864 98.6119 158.864V156.864ZM89.4907 162.435C87.1893 166.015 86.0919 170.837 86.0919 176.8H88.0919C88.0919 171.051 89.1545 166.657 91.1731 163.517L89.4907 162.435ZM98.6119 196.808C101.119 196.808 103.346 195.946 105.252 194.251L103.924 192.757C102.374 194.134 100.616 194.808 98.6119 194.808V196.808ZM105.252 194.251C107.142 192.571 108.567 190.222 109.567 187.273L107.673 186.631C106.753 189.346 105.489 191.365 103.924 192.757L105.252 194.251ZM109.564 187.282C110.618 184.272 111.132 180.771 111.132 176.8H109.132C109.132 180.605 108.638 183.872 107.676 186.622L109.564 187.282ZM111.132 176.8C111.132 174.054 110.887 171.533 110.389 169.244L108.435 169.668C108.897 171.795 109.132 174.17 109.132 176.8H111.132ZM110.389 169.244C109.894 166.965 109.193 164.975 108.274 163.289L106.518 164.247C107.327 165.729 107.97 167.531 108.435 169.668L110.389 169.244ZM106.469 163.393L93.8687 194.569L95.723 195.319L108.323 164.143L106.469 163.393ZM94.3631 195.846C95.6995 196.487 97.1196 196.808 98.6119 196.808V194.808C97.4162 194.808 96.2922 194.553 95.2286 194.042L94.3631 195.846ZM123.064 202H122.064V203H123.064V202ZM123.064 195.952L122.441 195.17L122.064 195.47V195.952H123.064ZM136.024 185.08L135.361 184.331L135.356 184.335L136.024 185.08ZM144.808 175.504L143.984 174.937L144.808 175.504ZM145.744 159.952L145.026 160.648L145.031 160.653L145.037 160.659L145.744 159.952ZM132.928 160.456L133.683 161.112L133.691 161.102L132.928 160.456ZM130.552 167.008V168.008H131.552V167.008H130.552ZM123.136 167.008L122.136 166.994L122.122 168.008H123.136V167.008ZM125.368 158.08L126.225 158.594L125.368 158.08ZM131.2 152.608L130.753 151.714L130.746 151.717L131.2 152.608ZM151.576 154.912L150.869 155.619L150.875 155.625L151.576 154.912ZM153.808 174.424L152.904 173.996L152.901 174.003L153.808 174.424ZM148.84 182.128L149.604 182.773L148.84 182.128ZM141.928 189.112L141.272 188.357L141.265 188.363L141.928 189.112ZM134.368 195.448L133.747 194.664L131.496 196.448H134.368V195.448ZM157.12 195.448H158.12V194.448H157.12V195.448ZM157.12 202V203H158.12V202H157.12ZM124.064 202V195.952H122.064V202H124.064ZM123.687 196.734C128.642 192.789 132.977 189.153 136.691 185.825L135.356 184.335C131.678 187.631 127.374 191.243 122.441 195.17L123.687 196.734ZM136.686 185.829C140.472 182.48 143.461 179.228 145.632 176.071L143.984 174.937C141.931 177.924 139.063 181.056 135.361 184.331L136.686 185.829ZM145.632 176.071C147.838 172.862 148.976 169.548 148.976 166.144H146.976C146.976 169.076 146.002 172.002 143.984 174.937L145.632 176.071ZM148.976 166.144C148.976 163.31 148.171 160.965 146.451 159.245L145.037 160.659C146.292 161.915 146.976 163.698 146.976 166.144H148.976ZM146.462 159.256C144.75 157.489 142.455 156.648 139.696 156.648V158.648C142.024 158.648 143.761 159.343 145.026 160.648L146.462 159.256ZM139.696 156.648C136.536 156.648 133.976 157.67 132.164 159.81L133.691 161.102C135.048 159.498 136.999 158.648 139.696 158.648V156.648ZM132.173 159.8C130.422 161.816 129.552 164.237 129.552 167.008H131.552C131.552 164.691 132.266 162.744 133.683 161.112L132.173 159.8ZM130.552 166.008H123.136V168.008H130.552V166.008ZM124.136 167.022C124.182 163.599 124.898 160.807 126.225 158.594L124.51 157.566C122.958 160.153 122.186 163.313 122.136 166.994L124.136 167.022ZM126.225 158.594C127.571 156.352 129.376 154.66 131.654 153.499L130.746 151.717C128.127 153.052 126.045 155.008 124.51 157.566L126.225 158.594ZM131.647 153.502C133.986 152.333 136.662 151.736 139.696 151.736V149.736C136.394 149.736 133.405 150.387 130.753 151.714L131.647 153.502ZM139.696 151.736C144.651 151.736 148.324 153.075 150.869 155.619L152.283 154.205C149.259 151.181 145.013 149.736 139.696 149.736V151.736ZM150.875 155.625C153.433 158.14 154.752 161.536 154.752 165.928H156.752C156.752 161.104 155.286 157.156 152.277 154.199L150.875 155.625ZM154.752 165.928C154.752 168.703 154.139 171.389 152.904 173.996L154.711 174.852C156.069 171.987 156.752 169.009 156.752 165.928H154.752ZM152.901 174.003C151.693 176.604 150.087 179.098 148.075 181.483L149.604 182.773C151.721 180.262 153.427 177.62 154.715 174.845L152.901 174.003ZM148.075 181.483C146.046 183.89 143.779 186.181 141.272 188.357L142.583 189.867C145.164 187.627 147.505 185.262 149.604 182.773L148.075 181.483ZM141.265 188.363C138.782 190.559 136.276 192.66 133.747 194.664L134.989 196.232C137.547 194.204 140.081 192.081 142.59 189.861L141.265 188.363ZM134.368 196.448H157.12V194.448H134.368V196.448ZM156.12 195.448V202H158.12V195.448H156.12ZM157.12 201H123.064V203H157.12V201ZM171.996 200.992L171.575 201.899L171.996 200.992ZM165.588 195.52L164.748 196.063L164.753 196.071L165.588 195.52ZM162.996 186.664V185.664H161.953L161.996 186.706L162.996 186.664ZM170.628 186.664L171.626 186.61L171.575 185.664H170.628V186.664ZM173.508 193.216L172.81 193.933L172.82 193.942L173.508 193.216ZM188.34 193.504L187.685 192.748L188.34 193.504ZM187.764 180.616L188.305 179.775L187.764 180.616ZM175.38 178.528H174.38V179.528H175.38V178.528ZM175.38 171.76V170.76H174.38V171.76H175.38ZM186.18 170.032L185.646 169.187L186.18 170.032ZM186.828 159.664L186.16 160.409L186.167 160.415L186.175 160.421L186.828 159.664ZM174.732 159.88L175.403 160.621L174.732 159.88ZM172.14 165.208V166.208H173.055L173.136 165.297L172.14 165.208ZM164.58 165.208L163.581 165.158L163.528 166.208H164.58V165.208ZM166.884 157.648L166.043 157.106L166.884 157.648ZM172.572 152.608L173.019 153.502L173.026 153.499L173.033 153.495L172.572 152.608ZM189.564 152.536L189.102 153.423L189.109 153.427L189.116 153.43L189.564 152.536ZM194.748 157.216L193.885 157.721L194.748 157.216ZM194.244 170.32L193.469 169.688L193.467 169.69L194.244 170.32ZM188.988 174.208L188.62 173.278L187.988 173.528V174.208H188.988ZM188.988 174.64H187.988V175.401L188.722 175.604L188.988 174.64ZM195.828 178.96L195.062 179.604L195.07 179.613L195.078 179.622L195.828 178.96ZM196.476 195.16L195.611 194.658L195.607 194.664L196.476 195.16ZM190.5 200.776L190.033 199.891L190.026 199.895L190.5 200.776ZM180.996 201.864C177.812 201.864 174.958 201.265 172.417 200.085L171.575 201.899C174.409 203.215 177.555 203.864 180.996 203.864V201.864ZM172.417 200.085C169.892 198.913 167.901 197.209 166.422 194.969L164.753 196.071C166.442 198.631 168.724 200.575 171.575 201.899L172.417 200.085ZM166.427 194.977C164.957 192.705 164.133 189.933 163.995 186.622L161.996 186.706C162.147 190.307 163.05 193.439 164.748 196.063L166.427 194.977ZM162.996 187.664H170.628V185.664H162.996V187.664ZM169.629 186.718C169.786 189.591 170.842 192.017 172.81 193.933L174.205 192.499C172.622 190.959 171.757 189.017 171.626 186.61L169.629 186.718ZM172.82 193.942C174.875 195.889 177.641 196.808 180.996 196.808V194.808C178.014 194.808 175.789 193.999 174.195 192.49L172.82 193.942ZM180.996 196.808C184.276 196.808 186.984 195.999 188.994 194.26L187.685 192.748C186.144 194.081 183.955 194.808 180.996 194.808V196.808ZM188.994 194.26C191.022 192.506 192.004 190.1 192.004 187.168H190.004C190.004 189.612 189.209 191.43 187.685 192.748L188.994 194.26ZM192.004 187.168C192.004 183.915 190.8 181.383 188.305 179.775L187.222 181.457C189.047 182.633 190.004 184.469 190.004 187.168H192.004ZM188.305 179.775C185.952 178.259 183.114 177.528 179.844 177.528V179.528C182.813 179.528 185.255 180.189 187.222 181.457L188.305 179.775ZM179.844 177.528H175.38V179.528H179.844V177.528ZM176.38 178.528V171.76H174.38V178.528H176.38ZM175.38 172.76H179.196V170.76H175.38V172.76ZM179.196 172.76C182.159 172.76 184.687 172.157 186.714 170.877L185.646 169.187C184.024 170.211 181.897 170.76 179.196 170.76V172.76ZM186.714 170.877C188.871 169.515 189.916 167.369 189.916 164.632H187.916C187.916 166.791 187.136 168.245 185.646 169.187L186.714 170.877ZM189.916 164.632C189.916 162.277 189.127 160.326 187.481 158.907L186.175 160.421C187.312 161.402 187.916 162.763 187.916 164.632H189.916ZM187.495 158.919C185.862 157.456 183.624 156.792 180.924 156.792V158.792C183.311 158.792 185.009 159.376 186.16 160.409L187.495 158.919ZM180.924 156.792C178.148 156.792 175.823 157.541 174.06 159.139L175.403 160.621C176.712 159.435 178.515 158.792 180.924 158.792V156.792ZM174.06 159.139C172.328 160.708 171.357 162.722 171.144 165.119L173.136 165.297C173.307 163.374 174.063 161.836 175.403 160.621L174.06 159.139ZM172.14 164.208H164.58V166.208H172.14V164.208ZM165.578 165.258C165.715 162.531 166.438 160.185 167.724 158.19L166.043 157.106C164.545 159.431 163.733 162.125 163.581 165.158L165.578 165.258ZM167.724 158.19C169.015 156.187 170.772 154.626 173.019 153.502L172.124 151.714C169.571 152.99 167.537 154.789 166.043 157.106L167.724 158.19ZM173.033 153.495C175.268 152.333 177.889 151.736 180.924 151.736V149.736C177.622 149.736 174.675 150.387 172.11 151.721L173.033 153.495ZM180.924 151.736C184.27 151.736 186.98 152.318 189.102 153.423L190.026 151.649C187.54 150.354 184.489 149.736 180.924 149.736V151.736ZM189.116 153.43C191.27 154.507 192.843 155.942 193.885 157.721L195.611 156.711C194.348 154.554 192.465 152.869 190.011 151.642L189.116 153.43ZM193.885 157.721C194.94 159.525 195.476 161.556 195.476 163.84H197.476C197.476 161.228 196.859 158.843 195.611 156.711L193.885 157.721ZM195.476 163.84C195.476 166.121 194.802 168.054 193.469 169.688L195.018 170.952C196.661 168.938 197.476 166.551 197.476 163.84H195.476ZM193.467 169.69C192.132 171.337 190.519 172.527 188.62 173.278L189.355 175.138C191.584 174.257 193.475 172.855 195.02 170.95L193.467 169.69ZM187.988 174.208V174.64H189.988V174.208H187.988ZM188.722 175.604C191.32 176.321 193.423 177.654 195.062 179.604L196.593 178.316C194.68 176.042 192.223 174.495 189.254 173.676L188.722 175.604ZM195.078 179.622C196.701 181.458 197.564 183.983 197.564 187.312H199.564C199.564 183.633 198.603 180.59 196.577 178.298L195.078 179.622ZM197.564 187.312C197.564 189.972 196.912 192.414 195.611 194.658L197.341 195.662C198.823 193.106 199.564 190.316 199.564 187.312H197.564ZM195.607 194.664C194.367 196.834 192.523 198.579 190.033 199.891L190.966 201.661C193.756 200.189 195.896 198.19 197.344 195.656L195.607 194.664ZM190.026 199.895C187.614 201.19 184.618 201.864 180.996 201.864V203.864C184.861 203.864 188.201 203.146 190.973 201.657L190.026 199.895Z" fill="black" mask="url(#path-3-outside-1_332_656)"/>
</svg>
